<svg width="54" height="60" viewBox="0 0 54 60" xmlns="http://www.w3.org/2000/svg">
    <path d="M25.329 59.954a53.753 53.753 0 0 1 2.492-.067c.8.01.95-.005 1.33-.101 1.005-.256 2.078-.82 3.375-1.775.854-.628 1.444-1.24 1.78-1.843.337-.603.644-.849 1.463-1.163.761-.289 1.141-.574 1.317-.979.093-.212.112-.376.141-1.186.044-1.086.088-1.245.45-1.592.545-.526 1.204-.849 2.75-1.355 1.326-.435 1.52-.517 1.799-.772.512-.468.756-1.245.96-3.063.044-.415.044-.748 0-1.495-.131-2.301-.029-3.507.4-4.54.235-.573.698-1.118 1.302-1.538.147-.106.917-.666 1.707-1.25a46.05 46.05 0 0 1 2.17-1.514c1.556-.965 2.229-1.495 2.8-2.204.477-.589 1.711-2.62 2.184-3.594.24-.496.268-.578.244-.781-.078-.637-.732-1.196-1.336-1.134-.127.01-.444.063-.698.107a6.258 6.258 0 0 1-1.048.086c-.497 0-.644-.019-.975-.125-.468-.15-.805-.376-1.024-.68-.19-.27-.259-.44-.517-1.331-.303-1.062-.361-1.158-1.137-1.877-.59-.545-1.116-1.485-1.423-2.561-.083-.285-.269-.714-.488-1.134-.42-.8-.556-1.191-.556-1.587 0-.718-.254-1.538-.81-2.643-.395-.781-.634-1.355-.75-1.794-.05-.188-.298-.897-.552-1.573-.497-1.326-.96-2.672-1.053-3.067-.151-.637-.81-.965-2.102-1.057-.912-.062-1.984-.52-3.95-1.673l-.956-.56-1.887-.207c-1.77-.198-1.892-.208-2.014-.135l-.131.082-.308-.348c-.575-.65-1.15-1.032-1.726-1.138a1.586 1.586 0 0 1-.887-.463c-.488-.473-.58-.917-.337-1.616.263-.748.259-1.076-.005-1.37-.146-.169-.151-.169-.546-.169-.717 0-1.175-.077-3.126-.53-1.195-.28-1.936-.343-2.658-.227-.346.058-.453.048-1.999-.169-.897-.125-1.721-.226-1.833-.226-.269-.005-.6.11-1.103.39l-.419.232-.327-.073c-.429-.1-.746-.221-1.034-.395a1.143 1.143 0 0 0-.94-.13 4.045 4.045 0 0 0-.708.313c-.77.42-1.214.622-1.468.666-.38.072-.638.193-.955.444-.356.28-.673.68-.868 1.085-.259.535-.795.887-1.83 1.2-.896.276-1.389.46-1.647.609-.332.197-1.376 1.075-2.458 2.06-1.22 1.114-1.273 1.215-1.605 2.855-.307 1.538-.482 1.992-.99 2.58-.35.4-.54.738-.697 1.23-.092.304-.112.463-.112 1.013.005.738.088 1.129.395 1.78.37.782.795 1.92 1.092 2.928.215.728.317.945.742 1.568.463.69 1.565 2.035 1.784 2.185.361.246.732.323 1.517.323.385 0 .77-.015.858-.034.234-.043.77.106 1.414.386.844.371.912.39 1.488.386.38 0 .722-.044 1.331-.164l.82-.16.253.102c.629.256.95.285 1.877.174l.259-.034.214.227c.127.14.327.458.508.82.473.94.843 1.225 1.711 1.283.527.038.761.13 1.102.443.117.106.273.319.347.468.117.232.136.323.131.656-.01.545-.117.897-.556 1.814-.492 1.022-.556 1.25-.556 1.828 0 .656.093.902.644 1.703.805 1.172 1.214 2.127 1.322 3.082.136 1.191.307 4.269.253 4.462-.122.42-.4.81-1.316 1.847-.576.656-.747.984-.864 1.688-.195 1.177-.02 2.089.834 4.317.195.502.38 1.037.415 1.182.039.164.073.883.097 1.905.044 1.915.025 1.828.625 3.208.653 1.495.838 2.257.736 2.99-.03.198-.04.468-.025.603.064.56.556 1.192 1.044 1.341.146.049.551.082 1.127.102 1.2.043 1.584.1 1.687.255.175.26.273.27 2.019.188zm15.332-2.7.302-.121 1.61.062 1.608.063.24-.12c.282-.155.526-.425 1.048-1.192.22-.318.658-.936.985-1.375.775-1.046 2.077-2.99 2.57-3.825.492-.834.522-.955.478-1.992-.015-.424-.044-.839-.059-.926-.03-.15-.039-.154-.258-.145-.122 0-.717.025-1.322.044l-.551.018c-.423.014-.808.028-.975.035-.234.01-.424-.005-.424-.024 0-.082-.088-.005-.44.4-.853.98-1.409 1.462-2.013 1.741-.293.135-.376.15-.824.155-.444.01-.537.024-.786.144-.365.179-.712.521-.887.874-.112.226-.146.376-.17.752-.054.757-.215 1.095-.952 2.002-.765.94-.926 1.288-.926 2.001 0 .386.02.497.112.69.166.328.497.637.814.753.346.13.454.125.82-.015z" fill="#0a84ff" fill-rule="nonzero"/>
</svg>
