<svg width="67" height="45" viewBox="0 0 67 45" xmlns="http://www.w3.org/2000/svg">
    <path d="M30.184.08c.342-.11.602-.11.76.015a.205.205 0 0 1 .129.158c.027.124-.048.289-.219.495-.13.117-.13.179-.13.193 0 .007.007.02.014.027l.943.117c.117.028.15.076.165.11.02.062 0 .131-.076.22l-.191.303c0 .02 0 .034.02.055l.022.016.026.012.09.02.218.042s.04-.007.075-.049l.321-.33c.178-.11.472-.082.896.069.376.117.65.22.786.378l.014.021.014.027.232.461.116.104.144.068c.02.014.034.028.048.042.089.11.027.275-.062.447-.061.069-.061.158-.061.268l.068.261-.041.324-.02.013a.91.91 0 0 1-.336.248c-.116.062-.287.186-.512.413l-.465.488c-.13.172-.397.385-.759.654-.007 0-.014.007-.02.013-.055.042-.11.083-.171.124-.431.317-.705.578-.855.798l-.13.275.28-.2c.178-.11.335-.178.472-.192l.65-.234c.075-.04.246-.123.362-.192a.331.331 0 0 0 .089-.062c.013-.014.02-.02.02-.028l.007-.02s-.007-.014-.007-.028a1.305 1.305 0 0 0-.123-.268l-.007-.02c-.013-.07-.027-.166.041-.235.055-.055.13-.082.267-.068h.034l.233.227c.068.123.143.185.225.185l.205-.027.253-.014h.062c.15 0 .219.055.253.096.061.076.068.193.014.338-.014.02-.021.034-.028.048-.007.007-.007.013-.007.02-.006.014-.006.02-.006.028v.055c.006.007.006.014.006.02a.15.15 0 0 0 .02-.034l.097-.234a.634.634 0 0 1 .095-.096c.007-.014.02-.02.028-.028.006-.007.02-.007.034-.013.013-.007.027-.014.04-.014.015 0 .028.007.042.007.014 0 .027 0 .048.007h1.032l.43.089c.124.083.179.248.179.495 0 .275.629.317.998.317.068 0 .136-.007.205-.007.068 0 .137 0 .212-.007.102-.028.225.02.355.083l.15.048.042-.048a.252.252 0 0 1 .075-.138l.007-.007.02-.014.02-.013c.008 0 .021-.007.028-.014.007 0 .014-.007.02-.014.007 0 .014-.007.021-.014l.02-.027c.007 0 .007 0 .007-.007.041-.069.035-.186-.082-.385-.082-.145-.061-.262.062-.392.102-.104.226-.138.403-.104.02 0 .034 0 .055.007l.007.007.063.018a.798.798 0 0 1 .23.168l.302.193h.704l.048-.007.013.007a.738.738 0 0 1 .431.282c.089.15.062.302-.061.412l-.643.468c-.321.24-.3.303-.3.31.006 0 .074.04.252.082.212.069.356.158.43.255l.807 1.128c.035.048.076.082.11.117l.02.02c.028.028.055.049.082.07.007.006.02.013.028.02.027.014.048.027.068.034.014.007.02.007.034.014.02 0 .034.007.055.007.014 0 .027.007.041.007h.014c.013-.007.027-.007.048-.014a.097.097 0 0 0 .04-.014c.007 0 .014-.007.014-.007.041-.013.075-.048.116-.082l.11-.275.102-.4c.02-.144.069-.254.144-.281.007-.007.034-.014.055-.014.027 0 .048.007.068.014.055.034.103.103.178.213.096.172.198.282.3.316.014.014.035.02.055.02a.346.346 0 0 0 .22-.054l.348-.193c.136-.09.253-.117.369-.082l.027.013.547.4a.563.563 0 0 0 .185.048c.027 0 .089 0 .089-.159 0-.137.013-.302.143-.357.041-.014.055-.014.075-.014.055 0 .144.014.247.09l.017.012.017.008a.946.946 0 0 0 .157.069c.027-.007.041-.062.041-.152l.014-.598c-.007-.034-.007-.055-.014-.069-.15.076-.212.096-.26.096h-.027l-.02-.013c-.055-.042-.076-.083-.076-.117 0-.028.007-.055.02-.083 0-.007.021-.02.028-.034.014-.02.02-.035.041-.055a.383.383 0 0 1 .219-.172h.007l.07-.015.066-.02c.137-.034.233-.075.288-.103l.294-.275.04.014.821.13.937.248a.139.139 0 0 1 .082.103c.006.028-.007.07-.035.11-.006.007-.013.021-.02.028l-.02.027-.062.062-.048.042.253.027a.36.36 0 0 1 .17.09l.02.03.008.032c0 .027-.007.082-.089.13l-.39.262a2.28 2.28 0 0 1 .124-.021l.342-.179.157-.206c.061-.13.184-.18.294-.207h.027l.636.028c.198.048.362.082.362.22l-.007.028-.136.233c-.069.104-.082.166-.048.22.02.07.164.166.417.234l.027.014.404.296.28.323c.082.062.178.138.253.138h.055a.823.823 0 0 0 .403-.124c.068-.027.144-.055.219-.082.007-.007.013-.007.027-.014.205-.069.424-.117.643-.138.362-.02.663.014.909.11a1.557 1.557 0 0 1 .37.18l.02.02a.971.971 0 0 1 .26.24c.123.172.191.351.205.55a.596.596 0 0 1 0 .22v.194l.164-.007.246.055.055.295c0 .083 0 .152.013.193h.034l.11-.137c.082-.186.191-.283.3-.283.021 0 .042 0 .055.007l.41-.068a.8.8 0 0 1 .247-.049c.102 0 .143.049.157.083.137.138.355.213.65.213.136 0 .239-.027.307-.103l.041-.027c.17-.117.226-.159.287-.159h.028l.02.014.451.323.445.44c.061.138.13.207.212.207.068 0 .191-.041.41-.268a.245.245 0 0 0 .034-.103c0-.028 0-.049-.014-.076l-.164-.282a.69.69 0 0 1-.143-.282c-.014-.09.006-.227.184-.337a.482.482 0 0 1 .178-.035c.068-.007.157.007.267.021l.403.062.092.006c.162.023.203.107.209.166v.007l.143-.014h.014a.84.84 0 0 0 .205.014c.11 0 .246-.007.43-.014.076-.014.158-.02.24-.02.198 0 .342.034.424.11l.403.213.52.22.465.302.082.055.868.578.123.083.547.364.007.007.117.103c.259.251.419.58.485.984-.007.035-.007.069-.007.096a.41.41 0 0 0 .02.186c0 .09.028.117.096.124.014-.028.02-.09 0-.213-.027-.337-.014-.434 0-.475l.007-.014a.175.175 0 0 1 .157-.09c.055 0 .11.028.178.077l.17.103.274-.014.274.02.02.035a.92.92 0 0 0 .294.316l.342.269.144.158.068.076-.123.103-.089.041-.082.069a.287.287 0 0 1-.246.192v.042l.048.041-.069-.007c-.02.028-.054.048-.109.055l-.342-.014-.24-.144-.02-.007.055.096.123.138c.11.158.062.33-.137.468-.04.027-.061.158-.068.247l-.068.248-.007.02-.062-.013c-.054.007-.102.014-.143.014a.785.785 0 0 1-.363-.09l-.02-.007-.02-.02-.24-.241-.191.014-.028-.02c-.068-.05-.157-.111-.177-.207l-.083-.248-.082-.179-.307-.027-.356.075h-.013l-.085-.018a.32.32 0 0 1-.175-.105c-.014-.021-.028-.035-.034-.055l-.007-.021-.028-.282a.111.111 0 0 0-.027-.048l-.102.027c-.076.041-.13.11-.13.29.034.247 0 .467-.11.625l-.013.014-.007.007-.363.31-.294.22c-.013.006-.027.006-.047.006l-.192.159.007-.014-.123.096.02.014c.014.014.035.014.062 0l.007-.028h.061c.055 0 .103.035.212.186l.007.028.041.192-.089.2-.02.013c.007 0 .013.035.061.076l.233.193c.136.123.205.24.225.371 0 .186-.11.303-.342.372l-.027.006h-.308l-.034-.02a.539.539 0 0 1-.266-.13l-.007-.008-.014-.013c-.014-.021-.027-.042-.034-.049-.007-.013-.02-.02-.027-.027-.02-.014-.035-.014-.055 0l-.178.186c-.116.13-.362.268-.704.392l-.636.289-.458.392c-.178.11-.321.227-.424.357l-.355.379a.36.36 0 0 1-.24.11h-.034l-.014-.001-.02-.006a.21.21 0 0 1-.143-.13l-.045-.081c-.107-.167-.227-.188-.311-.188-.034 0-.062 0-.096.007-.136.027-.335.13-.547.296l-.465.268h-.02c-.014 0-.014-.007-.02-.007l-.035.02-.007-.027-.006.007a.095.095 0 0 0-.02-.028.112.112 0 0 1-.021-.04c-.007-.008-.007-.015-.007-.028v-.048c0-.014 0-.028.007-.042 0 0 .006-.007.006-.013 0-.014 0-.028.007-.042 0-.007.007-.014.007-.027.007-.014.007-.028.014-.042 0-.013.007-.034.013-.048.007-.007.007-.02.014-.034l-.342.206v.007l-.075.13-.178.16-.007-.022-.02.014-.13-.289-.17.11-.035-.007c-.027-.006-.041-.013-.11.042-.047.055-.061.124-.047.227v.013l-.11.344-.136.2-.267.406a.18.18 0 0 0-.014.165l.219.027c.137.014.28.042.335.145l.02.034-.157.213-.013.014-.048.051c-.04.046-.055.076-.055.107l.11.166.143.165c.062.206.027.364-.089.467l-.02.014-.164.02c-.048 0-.082-.013-.103-.04-.034-.035-.041-.09-.02-.138.006-.02.006-.041.006-.055v-.041c-.02.027-.048.068-.082.11-.075.103-.15.22-.15.268l-.007.027c-.11.2-.075.283.014.344l.02.021.11.179c.013.055.006.158-.144.227l-.02.007-.233.041h-.232a.356.356 0 0 0-.287.151c-.062.055-.144.152-.076.248l.007.02a.322.322 0 0 1-.04.276l-.213.192c-.246.159-.348.317-.348.503l-.007.02-.096.282-.219.22a.485.485 0 0 1-.28.117h-.041c-.13-.02-.212-.09-.246-.213-.096-.206-.199-.543-.322-1.052-.143-.599-.17-.915-.095-1.067l.095-.371v-.358a.747.747 0 0 1 .014-.213c0-.02.014-.048.02-.069a.459.459 0 0 1 .042-.137c.013-.028.027-.055.047-.083.021-.041.041-.082.069-.117.02-.027.048-.055.075-.082.027-.035.055-.07.089-.097l.075-.172v-.027a.638.638 0 0 1 .062-.172l.013-.02a.092.092 0 0 1 .041-.049.164.164 0 0 1 .082-.048c.383-.2.917-.633 1.628-1.314.608-.598.964-1.032 1.06-1.286 0-.007 0-.007.006-.014a.239.239 0 0 0 .02-.09l.083-.323c.082-.22.109-.316.205-.344l.328-.062h.02c-.136-.117-.26-.144-.396-.103-.15.035-.267.124-.383.268a.825.825 0 0 0-.116.337v.021l-.581.537c-.356.254-.472.302-.554.302a.13.13 0 0 1-.089-.034.114.114 0 0 1-.034-.103.38.38 0 0 0-.075-.207.31.31 0 0 1-.028-.178c0-.007.007-.021.007-.035.007-.02.007-.034.014-.055a.608.608 0 0 1 .034-.103l.055-.138-.267.138-.014-.007c-.089.02-.15-.014-.212-.09l-.013-.006-.007-.02c-.014-.035-.027-.042-.034-.042 0 0-.007 0-.02.007l-.021.007-.417.103c-.11.014-.205.034-.274.062a.097.097 0 0 0-.04.013l-.008.007c-.02.007-.04.021-.054.028l-.329.523-.006.007v.006l-.417.4c-.192.185-.301.323-.315.405l-.061.172c.006.007.027.028.102.062h.24c.068.02.136.041.157.103.006.007.006.014.006.02l.096.035-.102.014a.123.123 0 0 1-.035.048l-.02.02c-.068.042-.219.077-.677.11l-.643.077-.335.117h-.047c-.09 0-.123-.035-.144-.062-.041-.07.014-.152.103-.248l.034-.02.15-.063c.007 0 .014-.006.02-.006-.047-.076-.081-.11-.102-.138h-.014l-.758-.144-.226.027-.164.138c-.198.172-.492.213-.82.103-.007.007-.035 0-.055 0a.187.187 0 0 0-.13.048l-.068.138h-.144l-.02-.014c-.41-.268-.821-.282-1.265-.041-.424.247-.76.57-1.026.983l-.02.02a5.492 5.492 0 0 0-.91.792l-.704.73c-.458.405-.526.542-.533.577a.884.884 0 0 0 .294-.062.374.374 0 0 1 .11-.02h.012l.032.001c.088.012.202.08.208.356v.186c.062-.055.123-.083.178-.083.041 0 .103.014.137.09l.007.02.013.09.041.027a.325.325 0 0 0 .185-.034l.055-.158c.013-.07.047-.172.123-.207l.02-.007.315.021c.218.069.382.144.464.213 0 .007.007.007.007.007l.014.007.007.007.253.344c.137.137.191.371.143.612-.04.22-.109.433-.225.667-.123.18-.178.592-.178 1.349l-.007.027-.15.282-.219.255-.11.357a6.31 6.31 0 0 0-2.611 2.539l-.027.007-.035-.049-.075-.082c-.034 0-.061.007-.082.007h-.04c-.09 0-.144-.042-.151-.117l-.199.034-.006-.027-.02.007h-.021l-.117.137.028.02-.062.021-.04.049-.021-.021-.117.082-.068.076-.362.51-.294.453a6.1 6.1 0 0 0-1.689 1.314l-.17-.22.13-.248.108-.282a.193.193 0 0 0-.04-.124c-.028-.034-.062-.048-.083-.048l-.013.007h-.233l-.123-.076-.451.131-.451.193-.445.124.123-.166c.021-.034.069-.075.13-.13l-.048-.02a.113.113 0 0 1-.088-.063c-.007-.034 0-.069.047-.117l.22-.357c.013-.049.027-.124-.028-.172-.034-.049-.089-.049-.13-.035a.753.753 0 0 0-.287.207l-.903.667-.13.02-.15-.034c-.034-.007-.048-.014-.068-.014-.014 0-.062 0-.075.097-.014.103 0 .178.047.24l.199.117.212.07c.102.034.15.102.15.212 0 .083.007.145.027.18.028.04.048.04.055.04.014 0 .027 0 .048-.013l.437-.29.308.063.397.103c.061 0 .143.014.191.055l.02.027.069.138-.048.138-.219-.028a.46.46 0 0 0-.177-.048c-.069 0-.165.014-.274.165l-.13.186-.184-.028-.171.2-.233.31c.007.013.048.11.267.433l.355.598c.014.028.15.13.192.165l.219.158c-.02.083-.035.166-.055.248-.02.014-.048.028-.055.034.02.014.02.021.041.028-.02.096-.048.193-.068.296l-.41.213.191-.02a.61.61 0 0 1 .191-.007c-.034.192-.04.392-.054.584-1.456.564-2.523 1.527-3.207 2.683l-.109.007c-.02.007-.041.014-.048.027-.007.014 0 .042.02.07l.035.054-.185.117-.034.014a1.33 1.33 0 0 0-.137.055l-.013.014-.028.007-.164.027-.15-.048-.506.103c-.02.007-.041.028-.055.055-.027.069-.007.179.055.31l.007.013v.014c-.007.062-.02.103-.055.124.096 0 .144.028.157.048l.014.02v.193l-.13.145c-.007.014-.02.027-.007.096v.02l-.068.138-.164.021a.13.13 0 0 0-.062.02l-.013.014-.267.104-.219-.131c-.102-.062-.123-.124-.123-.165 0-.055.041-.117.116-.165l.267-.207c.089-.082.137-.09.164-.09h.027l.13-.013c.034-.014.069-.02.096-.027-.041 0-.082-.021-.144-.062-.13-.138-.205-.234-.184-.337l.048-.159-.082.049c-.041.013-.062.02-.09.02a.178.178 0 0 1-.15-.082l-.123-.097-.225.145-.007-.007-.055.034-.294.2c-.007 0-.055.02-.219.165l-.246.248c-.102.075-.15.15-.157.233-.014.145.089.338.308.565l.834.742.13.303.191.351.062.55c.027.207.02.475-.144.544a2.075 2.075 0 0 0-.28.144.435.435 0 0 0-.212.172l-.02.028-.288.048h-.068l-.02.117c-.021.048-.172.192-.363.35l-.451.303-.076-.014-.02-.027c-.041-.041-.048-.138-.02-.282.013-.151.02-.303-.014-.344l-.137-.055-.15-.028c-.123-.048-.246-.11-.205-.22h-.069c-.11-.013-.205-.048-.212-.165l-.013-.041a.468.468 0 0 0-.123-.179l-.096-.082v-.014l-.205-.172-.15-.014-.22-.034-.102-.255a.378.378 0 0 0-.103-.02c-.061 0-.13.02-.191.192l-.055.4-.212.432c-.123.22-.157.344-.15.372.048.096.102.158.185.179l.04.02c.09.042.171.076.192.145l.123.234.027.2c0 .006.007.006.007.013a9.3 9.3 0 0 0-.683-.13c-.021-.014-.041-.028-.048-.028-.199-.076-.24-.11-.26-.138l-.02-.034.17-.262c.014-.027.028-.075.014-.172l-.007.014-.034-.24c-.007-.09 0-.159.041-.207l.027-.282v-.337l-.232-.516a1.049 1.049 0 0 1-.171-.53l-.02-.282-.062-.234-.164-.206-.103-.09v.173l-.177.172-.171.096-.22.206h-.088l-.034-.048-.02-.055-.192.145v-.255l-.082.055c-.041.048-.069.062-.09.069l-.054.014-.034-.042c-.041-.04-.068-.11 0-.234l.116-.22c.041-.068.02-.185-.02-.344a.879.879 0 0 0-.096-.289l-.007-.02c0-.007-.007-.014-.007-.02-.027-.035-.054-.049-.116-.083l-.184-.117.109-.097a.402.402 0 0 0-.15-.082c-.069-.035-.185-.124-.397-.447l-.027.014-.103-.22-.335-.496-.123-.007-.157-.055c-.014-.007-.02-.007-.028-.007.007.007.014.035.055.097.048.062.048.144-.014.24l-.013.021-.205.103-.069-.103-.061.096-.13-.02-.027-.028-.021.028-.068.11-.082-.124-.028.158-.15-.096v.055l-.13-.09a1.258 1.258 0 0 1-.082-.061l-.007-.007-.403.234a.229.229 0 0 0-.116.11c-.014.027 0 .068.027.117l.007.013c.048.152-.171.282-.41.4l-.342.15-.205.138c-.09.138-.233.255-.493.406-.184.096-.369.2-.403.275-.103.152-.294.296-.554.434-.266.144-.417.268-.478.399l.02.343.068.344-.198.537-.02.296v.268l-.274.179-.048.296c0 .082-.116.082-.212.082-.13 0-.143 0-.164.035-.116.185-.232.275-.348.275-.103 0-.185-.062-.267-.186l-.3-.798-.363-.502c-.171-.255-.226-.433-.171-.571-.02-.124-.137-.337-.315-.557-.191-.275-.3-.475-.341-.626 0-.124-.069-.33-.164-.62l-.035-.102c-.089-.358-.089-.599 0-.757l.082-.09.02-.02-.122-.117-.069-.124c0-.179-.04-.31-.109-.344l-.014-.007c0 .007-.02.062-.02.227 0 .076-.062.138-.192.213l-.287.11-.191.014a.636.636 0 0 1-.253-.103l-.335-.296c-.075-.055-.116-.117-.116-.179 0-.068.054-.13.157-.178l.157-.076a1.513 1.513 0 0 1-.738-.282l-.075-.055.034-.02-.568-.62c-.013-.014-.068-.076-.499-.076-.061 0-.13.007-.205.007l-1.401.076-.02-.007v.014l-1.382-.076c-.451-.082-.677-.24-.718-.495 0-.076-.013-.13-.048-.158-.013-.014-.034-.014-.04-.014l-.308.041-.417.117-.458-.055-.622-.31-.527-.37c-.185-.207-.273-.331-.253-.427.02-.042.014-.083-.007-.124-.048-.076-.184-.145-.383-.193l-.39.028-.157.179c-.006.013-.013.04.007.117l.014.061.178.31H6.85l.117.289c.02.055.095.117.218.186l.253.179-.006.213c-.035.069-.041.11-.014.165l.184.399c.021.048.076.165.171.124l-.006-.028-.083-.144c-.054-.124-.054-.29.199-.454a.252.252 0 0 1 .13-.048c.068 0 .15.04.15.247a.839.839 0 0 1-.123.516l.007.02.048.028c.15.076.348.11.574.11.253 0 .465-.034.595-.11.123-.082.287-.24.437-.42l.479-.502-.027.234a.62.62 0 0 0 .047.386l.014.027.15.275c.165.234.37.365.554.33h.014l.287.049.294.247c.267.365-.027.626-.273.791l-.37.269a.477.477 0 0 0-.034.192l-.075.29-.246.047-.198.062c-.007.007-.035.028-.069.11l-.075.172-.492.028-.028.144-.061.22-.287.02-.26.028-.246.145-.041.02-.034.021-1.75.908-.459.083-.861.268-1.155-.014v-.069a1.098 1.098 0 0 0-.069-.344l-.123-.385.02-.268v-.02l-.006.006-.028-.206c-.047-.11-.13-.22-.239-.33l-.3-.344-.192-.303a1.28 1.28 0 0 0-.178-.323l-.26-.2-.253-.206c-.075-.09-.102-.268-.116-.4l-.082-.412a.963.963 0 0 0-.369-.42l-.198-.103-.158-.165-.143-.357a2.305 2.305 0 0 0-.267-.482l-.458-.447a.341.341 0 0 1-.17-.248v-.013l.088-.33.048-.131v-.076l-.068.02-.014-.061-.007-.02c-.034.027-.068.095-.116.254L.656 37l-.068-.014c-.171-.027-.335-.344-.41-.53l-.15-.31L0 35.57l.068-.076.178.028c.068.027.144-.007.226-.083l.082-.075.054.11c.09-.103.212-.282.342-.557l.062-.104.014-.007.211-.522.062-.227h.02l.042-.18-.035-.46h.287l.062-.138.02-.013c.014-.007.035-.028-.006-.09-.02-.041-.028-.082-.007-.11.02-.041.082-.048.102-.055h.02l.2.048.225.014.225-.11.205.083.206.04c.116 0 .3-.068.58-.212l.021-.014.267.027.314-.027.117-.083.13-.041-.007-.007h.006l.137-.041-.04.055.15.02.239-.027.219.055.034.117c.034.007.061-.014.116-.055l.007-.007-.041-.062.417.069s.67-.337 1.477-.564c-.028.165-.02.268.02.31l.157.068.164.028.073.01c.096.026.186.104.262.23.042.097.137.207.54.207h.103c.342 0 .581-.055.704-.165.02-.028.035-.117.048-.2l.007-.062H9.1v-.344l-.02-.123c-.028-.207-.056-.365-.097-.393l-.116-.103.09-.117c.026-.027.04-.055.033-.068 0-.014-.034-.028-.075-.042l-.294-.034c-.089-.041-.075-.165-.02-.255l.13-.2.15-.034.116.035.171.014h.198c.055-.007.069-.028.076-.035.006-.007.02-.027.013-.069l-.068-.068-.116-.076a.733.733 0 0 1-.137-.344c-.02-.069-.075-.055-.116-.041a1.219 1.219 0 0 1-.164.082l-.041.014-.199.523v-.667c.02-.138-.013-.207-.048-.214-.369-.158-.608-.42-.71-.784a1.008 1.008 0 0 0-.192-.062l-.027-.013c-.014-.007-.069-.049-.069-.104 0-.055.069-.11.123-.137l.02-.014.267.02h.028c-.014-.013-.041-.034-.096-.075-.061-.041-.061-.09-.055-.11.014-.069.103-.124.288-.186l.02-.007.5-.041.06-.055.083-.213c.075-.193.054-.344-.055-.461-.034-.035-.082-.041-.191-.028l-.322-.02c-.15-.07-.321-.062-.54.007-.04.013-.075.027-.11.04a.514.514 0 0 0-.232-.102c-.342-.07-.478-.344-.574-.764-.096-.426.574-.846 1.053-1.018.478-.172 1.053-.172 1.436-.764.382-.591.191-1.437-.096-1.52-.287-.082-.574-1.01-.096-1.183.479-.165 1.053-.846 1.149-1.183.095-.337.574-1.692.574-2.366 0-.681.574-.51.191-1.356-.382-.846.192-.763 1.053-1.183.862-.426 1.723-1.355 2.106-2.201.383-.846.766-.935.861-1.61.035-.24.048-.412.055-.55.103.11.15.13.171.13h.007l.137-.268c.006-.027.02-.055.027-.075a.392.392 0 0 0 .034-.13c-.013-.008-.02-.015-.04-.022-.035-.02-.07-.034-.103-.061l-.041-.042a.836.836 0 0 1-.247-.412l-.047-.241c-.007-.007-.02-.014-.035-.02l-.013-.008-.014-.007a.341.341 0 0 0-.082-.013c-.17 0-.28-.035-.328-.11-.048-.07-.041-.152.02-.248l.171-.227.069-.13.034-.31c0-.124-.041-.186-.055-.193l-.02-.007c-.069-.041-.287-.158-.22-.364l.008-.021.232-.344.37-.468c.122-.179.218-.357.273-.557l.007-.02a.585.585 0 0 0 .068-.22l.02-.276c.048-.316.24-.364.356-.364.02 0 .041 0 .062.006l.526-.027.39-.076c.157 0 .28.062.342.172.061.124.088.33.088.606 0 .117-.04.268-.088.399l-.171.302-.076.241a.308.308 0 0 0 .076.248c.13.234.184.543.164.949l-.09.984.083.426.13.468c.027.096.054.186.068.268.007.02.007.035.007.055.014.062.02.124.02.172 0 .028-.006.041-.006.062a.606.606 0 0 1-.014.11c-.007.02-.02.035-.027.048-.014.028-.02.055-.041.076l-.014.186c0 .103-.027.185-.041.227l-.014.02-.506.55-.04.31c-.055.152-.213.213-.377.158l-.492-.068c-.027.006-.041.013-.041.013l.185.152a.861.861 0 0 0 .287.062l.642.013c.035-.02.137-.103.322-.302l.65-.853c.074-.117.088-.255.02-.427a.44.44 0 0 1-.041-.124c-.007-.006-.007-.013-.007-.02a.705.705 0 0 1 .027-.358c.048-.082.096-.158.157-.22.007-.014.021-.02.028-.028.02-.02.034-.04.061-.055a.426.426 0 0 1 .11-.068.407.407 0 0 1 .191-.083c.069-.014.137-.02.219-.014.164.02.273.083.376.227a.822.822 0 0 1 .082.351l-.034.378c-.014.255.061.413.232.475a.863.863 0 0 0 .226-.007c.007 0 .034-.014.04-.027.008-.014 0-.028 0-.042l-.102-.068-.17-.055c-.083-.035-.124-.076-.137-.138-.014-.083.034-.179.157-.303.11-.123.11-.282-.014-.516a1.326 1.326 0 0 0-.376-.42l-.253-.116-.307.041-.178.048h-.185a.718.718 0 0 1-.13-.034l-.034-.02c-.027-.014-.048-.028-.068-.042l-.041-.041-.028-.028c-.13-.165-.143-.406-.15-.509l.082-.9c.027-.09.014-.262-.157-.654l-.198-.578.177-.193.212-.144c.233-.145.342-.262.356-.379l.02-.467c.014-.2.096-.276.171-.303.055-.028.123-.028.198.007.124.041.144.227.124.536-.035.282-.09.454-.165.558-.157.199-.123.385.103.557.17.13.39.227.677.296l.28.103.205.137v-.027l-.034-.241c0-.09-.096-.172-.246-.206l-.438-.104c-.123-.04-.191-.137-.212-.282-.054-.233.055-.316.15-.344l.028-.006c.014-.007.02-.007.034-.007.048 0 .11.02.212.082l.233.069c.013 0 .027 0 .034-.007.007 0 .02 0 .027-.007h.007l-.048-.302c0-.083.062-.145.164-.193l.22-.083.266.007.184.083.117.09.39.405c.04.041.116.124.184.179a.38.38 0 0 1 .055.041c0 .007.006.007.006.007.028.014.048.02.069.02h.437a.12.12 0 0 1 .096.049c-.082-.35-.253-.605-.52-.75l-.02-.02-.058-.05a1.692 1.692 0 0 1-.25-.315 4.045 4.045 0 0 1-.26-.578c-.075-.261-.082-.44-.013-.564.027-.144.13-.303.444-.303l.875-.089.349-.103c.13 0 .232.041.28.124l.192-.138a.827.827 0 0 1 .348-.138l.02-.006.281.02.02.035c.035.068-.013.178-.143.33a.633.633 0 0 0 .315-.255c.04-.096.006-.254-.096-.426-.144-.269-.212-.468-.212-.626 0-.193.089-.413.267-.66.157-.207.369-.386.676-.565.007 0 .007 0 .014-.007.075-.13.24-.24.506-.337a2.23 2.23 0 0 1 .3-.096l.937-.254c.103-.042.322-.234.568-.468.314-.268.567-.255.759.007l.157.24.15.145a.14.14 0 0 0 .103.02c.11-.006.253-.089.444-.26a.483.483 0 0 1 .247-.118c.027-.007.054-.007.082-.007h.027l.116.035.041-.02.137-.407.137-.151.294-.069c.109-.027.177-.062.198-.103 0-.014.02-.041-.02-.117-.151-.371-.103-.674.143-.956.191-.248.465-.42.827-.516z" fill="#0a84ff" fill-rule="nonzero"/>
</svg>
