<svg width="67" height="64" viewBox="0 0 67 64" xmlns="http://www.w3.org/2000/svg">
    <path d="M41.596 26.689c.508-.1.472-.058.576-.773.037-.234.095-.483.131-.557.063-.122.094-.132.482-.132.335-.005.455-.027.67-.143.665-.35 1.435-1.505 1.44-2.151 0-.106-.037-.498-.09-.869-.135-1.033-.099-1.102.88-1.637.592-.323.838-.503.875-.646.015-.058.13-.318.256-.577.288-.604.288-.657.006-.732-.393-.1-.388-.095-.184-.307.105-.111.194-.228.194-.265 0-.1-.178-.164-.717-.254-.738-.117-.723-.111-.79-.26-.085-.185-.08-.498.015-.996.042-.227.078-.524.078-.651 0-.217.053-.318.587-1.097 1.178-1.716 2.089-2.94 2.581-3.464.162-.17.24-.218.33-.191.146.037.146.037-.042-.567-.084-.275-.157-.546-.157-.593 0-.117.089-.164.602-.308.581-.164.57-.153.419-.38-.204-.308-.178-.377.256-.674l.388-.265.466.212c.251.122.56.265.686.323.22.106.534.377.534.467 0 .026-.074.058-.163.08-.22.047-.534.349-.722.682-.168.297-.403.97-.456 1.298-.026.175-.057.212-.167.228-.194.021-.267.17-.147.302.09.1.09.106-.063.186-.089.047-.319.264-.518.487-.194.222-.455.46-.576.535-.188.111-.225.159-.225.291 0 .09-.058.276-.13.424-.132.26-.132.265-.058.72.041.255.099.673.136.938.068.557.183 1.203.251 1.436.126.419.194.482.906.842.382.186.722.371.759.403.047.037.21.053.424.037.508-.032.88-.222 1.969-1.007 1.026-.741 1.47-.985 1.895-1.043.34-.048.555-.207 1.314-.99.566-.578.89-1.029 1.23-1.707.273-.55.32-.91.152-1.24a1.69 1.69 0 0 0-1.083-.884l-.22-.058.078-.191a.728.728 0 0 0 .047-.392c-.026-.175-.01-.238.131-.434L57 9.917l-.456-.037a4.715 4.715 0 0 1-.523-.059c-.037-.015-.084-.143-.105-.275-.031-.228-.052-.26-.225-.328a.813.813 0 0 1-.309-.239l-.11-.159.236-.683.24-.684-.575-.62c-.315-.344-.613-.683-.66-.757-.11-.164-.11-.339 0-.805l.089-.376-.367-.355c-.267-.255-.429-.371-.607-.419l-.24-.069-.168-.694c-.09-.386-.168-.725-.173-.752-.005-.032.105-.08.246-.116.21-.053.33-.133.618-.424l.361-.36-.115-.096c-.073-.058-.204-.09-.382-.09-.152 0-.32-.032-.377-.074-.095-.074-.095-.08.031-.127.189-.074.272-.19.251-.36-.015-.133.006-.149.246-.218.435-.121.42-.11.294-.249-.184-.2-.712-.455-.985-.487a.861.861 0 0 0-.466.074 1.573 1.573 0 0 0-.398.323c-.099.117-.199.218-.214.218-.016 0-.047-.085-.068-.186-.037-.212-.095-.265-.314-.312-.241-.053-.336.063-.336.423 0 .255-.01.286-.11.286-.062 0-.193.053-.293.112-.1.063-.188.1-.199.09-.015-.01 0-.106.027-.207.073-.249.068-.344-.032-.44-.141-.148-.345-.1-.696.16-.262.19-.398.254-.634.285-.162.022-.392.09-.508.154-.282.143-.67.588-.78.895-.162.44-.345.572-.67.482-.173-.047-.21-.037-.565.207-.503.344-.655.503-.733.779-.053.164-.147.296-.362.482-.282.249-.596.599-1.21 1.345-.156.191-.434.461-.617.604-.225.165-.372.329-.43.456-.046.111-.35.482-.67.821-.324.34-.628.715-.685.837-.105.244-.126.493-.047.62.036.058-.016.111-.252.238-.413.223-.555.445-.518.81.016.16.068.34.11.409.089.138.063.175-.283.387-.303.18-.434.354-.408.53.02.148-.005.174-.498.465-.916.551-1.418 1.044-1.487 1.463-.057.376.021.381.482.037.728-.551 1.032-.652 1.063-.36.01.11-.042.19-.257.386-.46.419-.727.509-1.22.403-.261-.053-.335-.048-.649.053-.743.243-1.686.747-3.193 1.71-.796.51-.906.6-.875.695.063.222.09.503.058.64-.021.08-.136.255-.262.388-.189.212-.236.302-.283.593-.031.19-.089.503-.12.694-.09.477-.063.524.277.524.362 0 .513.048.513.149 0 .047-.23.302-.507.572-.456.434-.503.493-.435.572.037.053.13.122.204.164.136.07.22.053.602-.106.09-.042.1-.026.068.165-.031.206-.11.301-.492.603-.167.133-.194.228-.178.673.01.265.22.466.623.599.194.063.435.164.529.222.466.27 1.424-.18 2.958-1.388.529-.418.581-.476.77-.863l.134-.254.064-.112c.016-.027.028-.042.032-.042.01 0 .074.106.131.233.073.17.105.35.105.63 0 .483.12 1.203.267 1.6.057.165.215.456.335.641.194.292.225.366.183.477-.089.239-.057.334.157.477.131.09.21.18.21.249 0 .17.23.524.487.742.235.196.235.2.267.609.068.832.141 1.52.178 1.557.02.016.235-.005.481-.058zM16.753 9.599c.701-.17 1.215-.223 1.44-.143.141.053.199.042.382-.053.12-.058.581-.212 1.031-.344.927-.265 1.262-.408 1.53-.647.381-.333.465-.847.224-1.33-.157-.317-.167-.481-.026-.572.136-.084.136-.312 0-.487-.1-.127-.105-.132-.256-.048l-.152.09-.032-.196c-.031-.222-.188-.413-.371-.46-.205-.053-.283.01-.346.27-.068.265-.105.291-.178.122-.094-.202-.21-.234-.43-.122l-.235.122c-.026.01-.042-.022-.042-.064 0-.175-.309-.297-.733-.291-.492.005-.639.047-.707.196-.073.164-.141.148-.078-.022.068-.174.068-.376 0-.418-.032-.021-.178-.016-.33 0-.272.037-.277.042-.43.334-.146.28-.172.302-.355.318l-.2.015.163-.317c.24-.493.188-.986-.141-1.277-.194-.175-.456-.212-.508-.074a.686.686 0 0 0-.032.185c0 .127-.042.127-.188-.01l-.12-.112-.351.165c-.477.227-.948.519-.985.614-.078.212.136.403.623.556.304.096.32.133.11.292-.157.121-.214.137-.398.106-.33-.059-.811-.043-.937.026-.141.074-.214.25-.178.44.026.138.042.143.325.143.413 0 .633.143.633.402 0 .149-.042.234-.183.377-.178.18-.199.185-.466.153-.33-.037-.372 0-.408.345l-.026.249.288.031c.434.053.753.26 1.199.774.44.503.774.747 1.089.784.125.01.44-.032.785-.122zm39.09 53.108c.083 0 .193-.238.225-.498.016-.143.042-.275.057-.286.016-.016.189.133.388.323.225.223.403.355.476.355.116 0 .116-.015.095-.418-.027-.498-.147-.72-.534-1.012-.487-.365-.456-.318-.42-.614l.037-.276.487.238c.697.34 1.068.329 1.068-.042 0-.185-.157-.297-.665-.493l-.382-.148v-.79l.147.08c.084.043.262.106.403.143.157.037.366.16.565.323.372.302.524.355.712.25.22-.128.194-.234-.146-.594-.178-.185-.32-.376-.32-.424 0-.17-.413-.492-1.052-.837-.775-.413-1.11-.715-1.35-1.229-.184-.397-.257-.673-.179-.673.026 0 .225.059.435.133.46.159.555.164.623.032.084-.154-.079-.324-.665-.684-.283-.175-.613-.429-.733-.561-.246-.27-.257-.35-.168-1.012.074-.514.095-.556.236-.556.162 0 .356.254.738.969.424.8.738 1.054.932.768.105-.153.105-.434.005-.519-.13-.106-.298-.37-.246-.37.032 0 .21.142.398.317.362.329.466.37.634.244.11-.08.136-.037-.471-.753-.283-.339-.11-.333.45.016.382.239.487.281.523.223.11-.18.027-.36-.335-.7-.167-.153-.204-.206-.1-.137.236.17.32.1.472-.355.068-.201.173-.419.23-.482.12-.133.665-.334.89-.334.084 0 .34-.053.582-.111.33-.09.518-.106.843-.085.246.016.46.005.534-.026.068-.032.141-.048.157-.032.015.021-.058.228-.157.466-.184.419-.23.636-.147.636.105 0 .995-.604 1.178-.8.157-.164.2-.244.183-.366-.01-.138.021-.18.273-.344.47-.302.701-.392 1.497-.615.895-.243 1.021-.302 1.105-.524l.063-.164-.613-.297c-.634-.307-.853-.477-1.785-1.377l-.398-.387.172-.318c.158-.297.173-.365.189-.863.01-.371.063-.726.162-1.134l.147-.593-.11-.864c-.063-.514-.09-.874-.058-.895.027-.016.294-.276.597-.572l.545-.546-.074-.17c-.267-.62-.445-1.054-.434-1.064.01-.011.141.01.293.042.173.037.288.037.32.005.026-.026.078-.265.125-.53.141-.868.482-1.409 1.058-1.674.214-.1.35-.121.79-.121h.534l.032-1.219.031-1.334.014-.619.018-.87.031-1.61-.136.09c-.194.126-.728.084-1.445-.123-1-.28-1.2-.302-1.618-.175-.456.138-.476.138-.785-.02a3.114 3.114 0 0 0-.487-.186l-.236-.064.052-.291c.048-.28.048-.291-.115-.46-.11-.112-.204-.303-.272-.525-.1-.34-.188-.45-.57-.726-.095-.07-.116-.154-.142-.625l-.031-.551.335.222c.183.122.356.239.387.27.09.085.22.053.309-.084a.56.56 0 0 1 .22-.186c.277-.106.089-.678-.335-1.017a17.401 17.401 0 0 0-.566-.434c-.178-.127-.392-.323-.47-.435l-.153-.201.016-.805.016-.805-.163-.186c-.193-.228-.429-.365-1.136-.667-.32-.138-.628-.313-.764-.435-.262-.233-1.414-1.51-1.597-1.77l-.12-.169.11-.339c.382-1.15.073-1.573-1.262-1.732-.215-.027-.492-.1-.613-.164l-.225-.117.309-.249c.335-.27.54-.519.502-.614-.01-.032-.099-.106-.188-.165a19.25 19.25 0 0 0-.288-.185c-.152-.1-.152-.185.005-.334a.642.642 0 0 0 .157-.249c.021-.074.074-.222.12-.333.085-.191.08-.207-.015-.302-.089-.09-.644-.223-.859-.207-.041.005-.256.032-.481.053a8.72 8.72 0 0 0-1.686.418 4.449 4.449 0 0 0-.707.392c-.508.35-.54.467-.204.79.22.212.225.222.204.53-.026.508.126.588.623.328.173-.09.178-.09.267.032.084.111.084.138.01.275-.094.191-.099.715-.015 1.219.078.429.016.63-.21.725-.319.133-.649-.037-1.02-.535l-.241-.312h-.362c-.199 0-.419-.021-.492-.053-.115-.042-.152-.027-.314.17-.346.407-.99 1.822-.953 2.092.01.085.068.26.131.392.058.132.147.493.194.795.073.492.1.566.24.704.163.149.168.149.645.117.55-.043.55-.043.55.37a1.2 1.2 0 0 1-.132.504c-.115.228-.13.302-.099.598l.031.334-.21.053c-.203.053-.208.053-.292-.127l-.09-.185-.455.031c-.707.053-1.303.138-1.775.255-.502.122-.539.106-1.057-.329-.204-.17-.367-.265-.456-.265-.235 0-1.073.313-1.618.604-.288.16-.795.43-1.125.61-.33.18-.718.365-.854.418a2.006 2.006 0 0 0-.565.37c-.283.26-.31.276-.31.16 0-.196-.13-.334-.428-.466a5.923 5.923 0 0 1-.294-.133c-.01-.01.042-.074.116-.148.073-.08.136-.19.136-.26 0-.196-.273-.688-.445-.794-.205-.128-.252-.122-.44.042-.2.17-.21.35-.032.445.173.09.168.127-.041.286-.398.307-1.037.461-1.383.334-.104-.037-.141-.01-.282.217-.157.26-.163.26-.351.217a1.9 1.9 0 0 0-.23-.047c-.027 0-.042-.085-.042-.186 0-.18-.006-.18-.351-.286a11.301 11.301 0 0 0-.629-.164c-.151-.037-.277-.08-.277-.096a.993.993 0 0 1 .079-.169.892.892 0 0 0 .078-.334c0-.196-.01-.206-.325-.355-.183-.09-.36-.159-.397-.159-.042 0 .078-.164.261-.365.346-.382.77-1.05.917-1.452.078-.217.12-.249.518-.45.576-.291.534-.403-.189-.54-.157-.032-.303-.075-.33-.101-.026-.027.022-.233.121-.493.157-.402.272-1.102.188-1.102-.125 0-.575.297-.649.43-.078.137-.115.153-.35.153-.142 0-.414.016-.603.032l-.34.037-.262.366c-.141.196-.267.397-.277.44-.032.132.136.148.32.031.24-.148.565-.19.847-.111.131.037.236.085.236.106 0 .074-.477.27-.728.302a1.768 1.768 0 0 1-.576-.059c-.183-.047-.345-.074-.361-.058-.016.016-.031.514-.031 1.102l-.001.18v.3c.001.569.022.635.116.78.1.165.115.266.115.674 0 .519.1.895.335 1.245.11.164.115.196.052.35-.083.2-.293.317-.408.222-.115-.096-.189-.027-.189.175 0 .095-.026.249-.057.344-.052.143-.079.164-.257.164s-.23-.032-.466-.302l-.261-.296-.299.233c-.162.127-.32.27-.35.317-.043.07-.09.075-.241.043-.404-.1-1.357.09-1.697.334-.162.116-.162.095-.057.757.02.17.005.244-.084.36-.105.133-.147.149-.388.133l-.267-.016-.052-.472-.052-.466-.173.281-.435.736c-.33.562-.492.737-1.015 1.086-.45.297-.707.52-.707.61 0 .026-.037.053-.079.053-.094 0-1.324.508-1.419.588-.047.037-.1.037-.162.005-.115-.064-.963 0-1.178.085-.157.063-.236.201-.46.784-.247.646-.456.853-1.032 1.027-.178.053-.252.053-.382 0-.22-.09-.33-.026-.629.371-.261.36-.382.392-.722.217-.252-.132-.34-.286-.351-.614-.01-.143-.016-.27-.021-.275 0-.006-.12.026-.267.068-.246.075-.272.075-.46-.037-.236-.137-.32-.116-.509.127-.172.239-.193.636-.036.906.089.154.094.212.052.445-.031.149-.1.318-.157.382-.1.106-.141.111-.613.08-.277-.022-.539-.043-.58-.06-.043-.01-.142-.126-.22-.259l-.142-.238-1.246.026-1.246.027-.147.17c-.078.095-.141.2-.141.238 0 .037.1.116.22.18l.225.117-.23.1a2.993 2.993 0 0 1-.351.127c-.068.016-.126.053-.126.085 0 .111.162.355.361.535.21.19.22.196.524.164.272-.031.335-.016.581.117.335.185.628.54.874 1.06.142.301.22.397.372.476.063.035.124.066.165.087l.05.024c.01.011-.042.112-.12.228a1.337 1.337 0 0 0-.137.244c0 .021.074.18.157.36.12.25.178.472.241.959.042.35.115.773.157.938.074.296.074.302-.063.503-.172.26-.57 1.107-.863 1.844-.215.545-.257.609-.65 1.006-.345.35-1.057.948-1.314 1.102-.031.021-.225-.021-.424-.09-.128-.043-.372-.111-.638-.18l-.324-.08a18.69 18.69 0 0 0-.158-.037c-1.466-.328-1.739-.413-2.461-.763-.717-.35-1.152-.487-1.393-.44-.073.017-.23-.015-.35-.068a3.898 3.898 0 0 0-.67-.18c-.488-.085-.65-.154-1.037-.435-.173-.122-.304-.18-.435-.18-.267 0-.335.037-.508.292l-.152.222-.471.032c-.702.042-.942.196-1.1.689-.062.18-.052.217.069.44.073.137.136.28.136.328 0 .042-.115.217-.257.376-.136.164-.267.344-.288.408-.031.1-.23.265-1.115.916-.21.154-.382.302-.382.323 0 .027.047.133.11.239.152.26.1.402-.257.678-.476.376-.597.53-.623.8-.026.233-.073.286-1.408 1.658-.76.779-1.382 1.436-1.382 1.462 0 .027.036.19.083.37.095.377.225.647.42.88.135.17.14.175.057.35-.047.1-.215.275-.377.397-.31.233-.356.355-.204.572.157.234.057.45-.435.97-.272.286-.435.493-.403.524.026.022.623.143 1.33.265l1.277.217.267.255c.142.137.461.392.707.561.78.557 1.131.996 1.236 1.579.078.44.46.487 1.827.228 1.24-.244 1.974-.286 2.822-.17.476.064.65.106.738.19.147.139.246.133.43-.02.11-.09.235-.127.518-.154.288-.021.57-.106 1.199-.355.455-.18 1.031-.376 1.277-.434.246-.058.53-.143.623-.19.163-.08.168-.091.137-.303l-.032-.222.361-.228c.194-.127.65-.387 1.006-.572.555-.297.654-.371.722-.525.136-.339.142-.646.016-1.075-.173-.583-.157-.938.058-1.303.225-.377.753-.885 1.555-1.5.35-.265.785-.625.963-.794.419-.392.565-.466 1.063-.53.35-.042.529-.111 1.303-.493l.896-.44h.523c.288 0 .555-.02.587-.042.036-.021.1-.153.136-.291.068-.228.089-.25.272-.28.24-.043.34-.165.34-.425 0-.143-.026-.201-.094-.222-.115-.027-.167-.239-.167-.678 0-.599.319-1.166.795-1.42l.226-.122.602.276c.942.429.932.423 1.288.339.167-.038.34-.075.371-.075.037 0 .2.122.362.27.162.149.377.303.47.345.237.1 1.08.1 1.268 0 .078-.042.482-.44.895-.88.67-.715.77-.8.896-.778.178.037.575-.127 1.204-.503.272-.16.597-.345.717-.403l.215-.117.288.133c.157.074.403.164.539.196.251.063.267.08.665.683.476.715.555.917.597 1.52.052.716.256.954 1.69 1.918.645.435.912.652 1.305 1.07.644.684.848.806 1.314.795.309-.005.387.016.591.148.194.122.273.223.43.557.178.376.21.413.46.53.152.074.461.158.692.2l.418.07.016.185c.016.26.178.8.241.816.031.01.194.042.356.074.22.048.356.117.534.28.388.34.576.737.895 1.887.157.556.163.545-.235.73-.168.075-.194.123-.257.388-.036.164-.13.45-.204.635-.126.329-.13.34-.037.408.215.16.53.064.796-.244.126-.137.367-.72.513-1.229.095-.328.241-.492.623-.688.388-.196.409-.228.372-.647-.047-.566-.063-.614-.204-.614-.094 0-.518-.244-.833-.482-.1-.074.372-1.102.681-1.473l.152-.175.33.085c.183.048.476.164.654.26.304.159.896.688 1.021.91.058.107.058.107.136.006.126-.164.152-.514.053-.763-.184-.455-.498-.662-2.226-1.467-.88-.408-1.832-.933-1.832-1.001 0-.032.105-.191.236-.35.13-.159.235-.307.235-.323 0-.085-.466-.154-1.031-.154-.492 0-.691-.021-.932-.106-.953-.334-1.555-1.086-1.723-2.156-.12-.747-.256-.948-1.104-1.595a8.33 8.33 0 0 1-.676-.566c-.309-.334-.366-.684-.183-1.129.105-.26.11-.28.026-.487-.115-.291-.11-.752.01-.858.048-.048.398-.265.78-.488l.692-.397.235.1c.126.059.294.112.367.117.073.005.136.027.136.043 0 .015-.079.17-.173.344l-.167.318.146.291c.079.159.168.392.194.514.042.159.079.217.13.196.106-.042.394-.493.394-.615 0-.058.073-.18.162-.27l.167-.164.137.18c.136.186.261.307.555.551.151.127.157.143.157.599 0 .254.026.508.052.556.031.048.162.17.298.275.157.122.257.244.278.35.042.196.277.397.665.572.267.112.309.154.361.334l.063.201h.298c.571-.005 1.016.212 1.676.806.282.254.43.35.618.397.403.09 1.199.556 1.576.916.188.18.209.18.602.08.12-.027.136-.016.136.106 0 .1.031.143.125.17.12.026.126.042.1.434-.026.386-.016.44.215 1.038l.246.625-.184.355-.178.355.09.265c.12.365.408.747.832 1.097.555.46.675.614.712.895.026.19.078.28.199.387.262.222.56.35 1.026.45l.44.085-.141.095a.709.709 0 0 0-.215.275c-.068.16-.068.202.005.34.094.185.35.386.597.471.246.08 1.01.074 1.76-.021.832-.106 1.177-.106 1.177 0 0 .17-.157.386-.32.445-.235.085-.439.074-1.052-.048-.696-.138-1.214-.138-1.455-.005-.236.127-.419.471-.419.8 0 .376.126.498.66.662.288.09.46.175.492.244.031.053.068.392.078.747.027.561.042.662.137.762a.692.692 0 0 0 .55.223c.177-.021.387-.302.387-.525 0-.084.015-.153.042-.153.02 0 .199.228.398.503.199.276.377.503.403.503zM21.36 20.682c.372-.038.765-.186.953-.366.131-.127.2-.397.152-.599-.031-.116-.058-.132-.283-.127-.136 0-.35.037-.481.074-.131.043-.299.143-.372.223-.147.159-.309.535-.309.715 0 .106.016.111.34.08zm1.508 14.245c.147-.037.246-.233.246-.488 0-.153.016-.18.095-.159a3.206 3.206 0 0 0 1.602.059c.497-.106 1.183-.504 1.183-.689 0-.111-.183-.233-.497-.344-.173-.059-.33-.127-.356-.154-.027-.026.068-.127.209-.233.141-.1.298-.238.35-.297.058-.063.153-.11.21-.11.278 0 1.032-.478 1.288-.811.1-.128.11-.165.052-.302-.089-.218-.424-.514-.664-.578-.11-.032-.45-.058-.76-.058-.33 0-.565-.021-.565-.053 0-.027.12-.355.267-.726.466-1.155.424-1.61-.194-2.182l-.34-.318.031-.233c.042-.281-.01-.334-.261-.25-.184.064-.393.006-.393-.105 0-.032.094-.276.204-.546.251-.599.298-.832.215-1.049-.068-.159-.288-.313-.445-.313-.053 0-.152-.047-.236-.105a1.522 1.522 0 0 0-.283-.16c-.136-.047-.136-.052-.062-.238.14-.339.382-.625 1.151-1.393.728-.726.87-.917.796-1.097-.073-.201-.733-.238-1.707-.106-.303.043-.57.08-.602.08-.115 0 .519-.578 1.163-1.065.377-.286.701-.546.717-.567.01-.021.005-.074-.021-.116-.037-.064-.215-.08-.874-.085-.456-.005-.922.005-1.037.016-.262.032-.592.28-1.314 1.001l-.54.535-.167-.175c-.225-.233-.46-.312-.702-.233-.1.032-.183.08-.183.106 0 .027.094.223.215.445.141.265.272.435.392.509.1.063.178.122.178.127 0 .005-.22.127-.492.265-.58.296-.947.63-1.031.943-.079.312-.042.36.283.36.502 0 .77.058.77.164 0 .048-.184.376-.41.72-.224.345-.423.652-.444.69-.032.047 0 .047.13.005.55-.18.776-.223.833-.165.084.085-.063.329-.314.52-.22.164-.262.27-.147.407.21.26.498.313 1.058.18.456-.11.628-.116.728-.037.157.133.084.435-.194.811l-.11.148.115.329c.2.572.152.741-.324 1.197-.346.334-.372.334-1.047.005-.257-.127-.466-.196-.519-.174-.11.042-.115.296-.015.593l.078.217-.22.016c-.324.021-.32.159.01.365.294.18.32.255.163.51-.152.253-.435.412-1.047.598-.299.09-.56.18-.581.201-.079.09-.267.652-.241.715.02.058.225.08.822.106l.796.032.141.17c.13.158.162.169.492.174.194.006.35.021.35.037 0 .059-.35.355-.517.44-.131.074-.189.069-.613-.048-.257-.074-.503-.121-.55-.106-.094.032-.492.445-.623.652-.063.09-.335.207-1.194.493-1.11.376-1.115.376-1.02.482.25.286.785.328 1.68.122.32-.075.655-.133.744-.133.12 0 .172.032.22.133.031.074.078.132.104.132.021 0 .157-.085.299-.185.513-.376.77-.414 1.11-.154.225.164.382.159.99-.032.266-.09.507-.159.533-.159.021 0 .11.106.2.239.22.323.486.524.643.482zm-9.414-3.894.629-.058c.937-.085 1.837-.207 2.251-.302.764-.175 1.518-.556 1.859-.948.35-.408.607-1.14.565-1.6l-.026-.25.503-.344.502-.344.005-.61c.006-.465-.01-.661-.083-.847-.12-.307-.204-.36-.445-.27-.126.042-.21.048-.252.016-.036-.032-.178-.085-.319-.122-.22-.053-.246-.074-.225-.185.02-.117.005-.128-.194-.122-.115 0-.34.037-.492.08-.346.09-.529.185-.686.36a.395.395 0 0 1-.293.137c-.21 0-.388.17-.293.286.031.043.141.09.24.106.158.032.184.058.184.186 0 .121-.037.164-.215.243-.173.08-.23.085-.298.037-.372-.275-1.063-.402-1.445-.275-.246.08-.555.35-.555.477 0 .058.047.132.1.17.057.042.13.137.167.216.083.191.005.276-.335.355-.43.096-.456.112-.456.18 0 .112.204.345.377.435.09.048.325.111.534.148l.372.064-.293.1c-.351.112-.53.08-.613-.11-.089-.186-.178-.139-.283.158a1.44 1.44 0 0 1-.115.28c-.016.017-.136-.01-.272-.057a1.546 1.546 0 0 0-.346-.085c-.141 0-.303.19-.303.36 0 .117.036.17.167.228l.168.08-.325.074c-.178.037-.35.1-.382.137-.063.074-.005.223.13.34.121.1.106.169-.104.413-.1.121-.178.26-.167.307.01.053.23.18.539.323l.523.233zM32.88 53.627c.173-.042.518-.519.686-.932.267-.668.356-1.584.21-2.087-.074-.233-.215-.461-.289-.45-.015 0-.22.153-.45.344-.801.662-.895.768-1 1.197a3.78 3.78 0 0 0-.1.816c0 .37.021.455.137.636.167.254.623.524.806.476zm-1.534 5.16c.214-.053.34-.132.576-.355.303-.296.419-.328.565-.148.037.042.084.08.11.08.058 0 .241-.377.46-.938l.174-.435-.142-.37c-.172-.435-.152-.589.1-.742.214-.138.262-.382.183-.933-.052-.402-.288-.948-.414-.964-.041-.01-.183.07-.314.17-.13.106-.46.318-.738.477-.665.381-.696.445-.686 1.499.005.64-.016.853-.125 1.35-.147.652-.189 1.214-.09 1.314.048.048.126.043.34-.005zM41.926 64l.126-.159c.272-.334.304-.44.277-.975-.047-1.128-.036-1.393.084-1.562.147-.212.225-.472.241-.795.016-.302.016-.302-.445-.233-.162.021-.639.143-1.058.265-.932.27-1.324.275-1.822.026l-.303-.148-.351.106c-.194.058-.487.132-.65.17-.44.09-.622.232-.748.593-.12.36-.09.445.277.747.383.307 1.053.635 2.325 1.128l.177.069.356.14c.47.185.9.36 1.074.437l.44.191z" fill="#0a84ff" fill-rule="nonzero"/>
</svg>
