<svg width="67" height="53" viewBox="0 0 67 53" xmlns="http://www.w3.org/2000/svg">
    <path d="M53.928 1.073c.058 0 .699-.384.735-.442.022-.043-.007-.144-.058-.224-.117-.174-.692-.34-1.37-.391-.386-.036-.407-.03-.633.232-.131.144-.24.296-.24.325 0 .116.327.145.764.08.496-.08.67-.022.736.24.022.1.05.18.066.18zM50.016.595c.779-.014.757-.007.728-.195-.022-.145-.066-.16-.532-.174-.342-.015-.553.014-.634.08-.072.05-.13.137-.13.195 0 .08.123.101.568.094zm5.988-.21c-.401-.043-.496-.029-.583.073-.168.195.044.311.605.333.866.029.852-.319-.022-.406zm-6.433.645a.751.751 0 0 1 .35-.102c.204 0 .255-.173.065-.246-.153-.058-.189-.05-.32.03-.058.035-.277.072-.474.072-.371 0-.692.144-.692.318 0 .123.853.065 1.071-.072zM48.1 1c.218 0 .619-.188.619-.289 0-.072-.43-.087-.67-.022-.073.015-.131.095-.131.174 0 .102.05.138.182.138zm3.606-.13c0-.159-.284-.094-.408.095-.095.137-.102.202-.037.282.175.21.437-.014.445-.377zm4.684.334c.35 0 .415-.022.4-.124-.029-.166-1.078-.217-1.078-.05 0 .137.168.18.678.174zm1.442.036c.408-.036.576-.094.576-.203 0-.123-.263-.138-.641-.029-.314.094-.263.254.065.232zm-14.023.739a.818.818 0 0 1 .364-.109c.11 0 .32-.036.474-.08.218-.065.306-.065.386 0 .094.08.153.065.328-.058a.835.835 0 0 1 .422-.152c.11 0 .306-.065.423-.145.123-.08.291-.144.378-.144.219 0 .292-.145.132-.268-.153-.11-.212-.11-.474-.03a5.439 5.439 0 0 1-.648.145c-.394.08-.474.073-.583-.021-.168-.152-.27-.145-.386.014-.08.109-1.377.522-1.916.609-.088.014-.146.08-.146.159 0 .116.073.138.54.16.393.021.582 0 .706-.08zm17.447.81a.597.597 0 0 1 .299-.122c.087 0 .13-.058.13-.167 0-.442-.677-.623-1.696-.449-.35.058-.729.109-.846.109-.123 0-.24.029-.262.072-.065.109-.502.087-.663-.036-.182-.138-.393-.138-.59 0-.138.101-.153.094-.182-.073-.022-.094.007-.217.066-.275.087-.087.058-.116-.19-.232-.167-.072-.379-.108-.488-.086-.11.021-.35-.008-.532-.066-.313-.094-1.202-.123-1.478-.05-.226.058-.139.231.153.311.16.044.466.058.677.03.32-.037.408-.023.495.079.11.13.117.13-.371.478-.226.16-.139.355.16.355.131 0 .299.058.372.123.108.095.144.107.312.036l.081-.036c.35-.167.488-.16.43.022-.058.18.073.188.655.014.59-.174 1.749-.167 2.026.022.255.166 1.173.123 1.442-.058zm-15.4.11c.175-.051.408-.087.517-.087.11 0 .43-.066.707-.145.357-.102.728-.145 1.224-.145 1.187 0 1.974-.304 1.639-.638-.124-.123-.255-.108-.496.073-.284.21-.437.094-.255-.181.066-.109.102-.225.073-.268-.065-.109-.626-.087-.852.043-.233.123-.233.13-.117.312.124.195.022.37-.21.37-.35-.008-.912-.19-1.014-.327-.138-.188-1.194-.246-1.45-.08a.698.698 0 0 1-.312.116.51.51 0 0 0-.292.138.469.469 0 0 1-.32.101c-.204-.036-.663.24-.62.363.015.05.08.072.132.058.058-.022.196-.037.305-.037.11-.007.226-.043.255-.087.03-.043.292-.08.583-.087.408-.007.525.015.525.095 0 .123-.24.195-.51.166-.117-.014-.182.022-.204.102-.037.173.306.246.692.145zm7.438-.522c.488-.246.816-.522.816-.688 0-.167-.182-.21-.386-.08-.16.109-.19.109-.27.007-.102-.123-.656-.144-.94-.028-.371.144-.648.557-.451.673.036.022.05.102.036.174-.03.101.022.123.364.145.32.014.481-.022.83-.203zm-1.814-.21c.146-.08.167-.312.05-.5-.08-.13-.626-.116-.626.022 0 .065.051.13.11.152a.22.22 0 0 1 .109.181c0 .181.16.246.357.145zm-1.29.398c.24-.043.423-.166.423-.268 0-.094-.466-.08-.568.022-.175.174-.102.297.145.246zm4.685.073a.313.313 0 0 1 .218-.116c.102 0 .11-.022.037-.109-.11-.13-.977-.152-1.18-.029-.175.102-.168.261.021.362.211.11.802.037.904-.108zM38.73 4.919c.233-.08.569-.152.75-.152.241 0 .365-.043.467-.152.19-.21.51-.362.64-.311.067.021.27-.051.46-.174.197-.116.495-.24.677-.268.183-.022.474-.087.656-.145.182-.05.51-.116.729-.145.67-.072.757-.239.262-.507-.226-.123-.299-.13-.59-.05-.437.115-.627.108-.824-.03-.109-.072-.407-.123-.917-.152-.7-.036-.765-.029-.911.116-.08.08-.153.218-.153.29 0 .101-.08.167-.27.224-.153.051-.531.232-.837.406-.314.181-.67.34-.787.37-.291.05-.328.137-.146.29.08.072.146.18.146.245 0 .268.197.312.648.145zm14.687-.76c.174-.21.27-.232.648-.152.255.05.357.021.838-.218.306-.152.633-.311.735-.354.102-.051.183-.13.183-.189 0-.087-.124-.108-.62-.116-.342 0-.801.015-1.02.044-.225.029-.473.087-.56.13a.799.799 0 0 1-.343.087c-.116 0-.19.044-.19.101 0 .058-.08.124-.181.145-.24.058-.408.573-.248.732.146.145.56.029.758-.21zm9.463 6.96c.123-.094.123-.108.014-.325-.065-.13-.153-.232-.19-.232-.123 0-.728-.464-.728-.558 0-.109.19-.13.255-.022.022.037.139.073.248.073.153 0 .262.065.4.246.132.174.226.239.328.21.095-.022.168.015.226.13l.095.167.102-.196c.05-.108.131-.195.167-.195.044 0 .073-.065.073-.145 0-.094.051-.145.146-.145.197 0 .262-.18.146-.398-.051-.094-.073-.225-.044-.297.058-.152-.08-.319-.262-.319-.175 0-.568-.398-.568-.572.007-.16.327-.514.48-.514.263 0 .678.311.824.623.13.268.174.304.437.333.35.029.444.007.444-.123 0-.167.204-.283.379-.203.13.058.204.029.4-.167.132-.13.24-.275.24-.311 0-.036.088-.065.19-.058.24.014.394-.181.277-.37-.058-.087-.233-.144-.597-.188-.46-.058-.525-.087-.525-.217 0-.275-.124-.37-.488-.377a2.66 2.66 0 0 1-.7-.137c-.597-.218-.531-.493.088-.428.19.022.38.007.43-.029.131-.087.03-.304-.16-.311-.153 0-.153 0 .014-.065.197-.08.204-.254.022-.55-.116-.19-.196-.233-.517-.269-.299-.036-.437-.101-.67-.311-.292-.261-.335-.268-.765-.138-.131.043-.19 0-.343-.246-.247-.384-.473-.522-.815-.5a3.286 3.286 0 0 1-.59-.043c-.277-.051-.314-.037-.423.13-.131.195-.386.246-.525.109-.058-.058-.167-.037-.386.08-.204.108-.298.122-.276.057.014-.05.153-.152.298-.224.146-.073.27-.16.27-.181 0-.03-.066-.153-.139-.276-.19-.311-.582-.37-1.158-.18-.233.079-.503.122-.597.1-.11-.028-.182-.007-.233.073-.03.065-.175.138-.306.16-.168.036-.328.152-.51.362-.284.34-.328.47-.16.47.152 0 .218.138.116.254-.066.08-.124.08-.262.022-.277-.13-.292-.37-.051-.76.182-.29.27-.356.575-.443.554-.16.685-.217.685-.333 0-.05-.102-.116-.226-.145-.277-.05-.342-.05-.575.03-.102.028-.561.18-1.02.325-.772.24-.867.29-1.26.66-.423.412-.467.535-.168.535.204 0 .634.138.736.24.05.043-.117.05-.474.021-.422-.036-.583-.022-.692.058-.138.101-.138.109.037.253.138.11.284.145.626.153.24 0 .466.029.51.065.036.036.313.08.612.101.299.015.794.073 1.093.13.298.058.757.095 1.02.095.539-.015 1.034-.189.976-.348-.022-.058 0-.123.043-.152.051-.03.212.087.394.297.167.188.422.384.56.434l.248.087-.225.008c-.277.007-.583.231-.525.376.051.138.634.094.692-.05.044-.116.219-.138.255-.03.015.037.168.145.35.24.32.166.328.18.328.528 0 .283-.022.355-.124.355-.066 0-.182.058-.255.13a.608.608 0 0 1-.328.124c-.102 0-.204.043-.226.101-.022.058-.16.145-.299.196-.262.094-.335.253-.182.405.117.116.015.152-.59.24-.422.057-.583.05-.845-.037-.422-.137-.488-.137-.64.03a.654.654 0 0 1-.365.166c-.197.021-.233.05-.262.275-.08.478.029.521.78.319a6.162 6.162 0 0 1 1.092-.123c.59-.015.67 0 .64.1-.043.139.096.276.372.349.255.065.306.202.088.239-.102.014-.175.08-.19.173-.014.124.022.153.219.153.43.014.707.101.75.246.051.145.146.174.692.239.175.014.357.087.408.145.102.137.394.152.569.021zM48.814 3.746c.306-.072.415-.13.415-.225a.269.269 0 0 0-.088-.18c-.102-.059-.918-.088-.969-.03-.072.066-.029.21.095.37.124.152.146.152.547.065zm1.522 1.065c.131-.022.444-.065.7-.109.72-.101 1.325-.623.917-.782-.109-.044-.109-.058.015-.145a.636.636 0 0 1 .313-.094c.255 0 .394-.102.357-.254-.029-.166.022-.166-1.224-.101a24.36 24.36 0 0 0-1.107.058c-.138.022-.036.145.167.217.292.101.24.24-.109.326-.218.058-.32.043-.517-.058-.19-.101-.27-.116-.393-.043-.212.108-.168.217.174.412.16.087.321.254.372.384.095.21.124.232.335.189zM60.9 3.818c.19-.05.51-.065.809-.036.444.044.488.036.488-.094 0-.253-.197-.319-1.005-.355-.576-.022-.802-.007-.867.065-.139.145-.117.268.08.391.153.102.226.102.495.03zM42.964 6.542a8.7 8.7 0 0 1 1.165-.174c.423-.029.787-.101.933-.181.226-.116.255-.116.4-.015.088.066.226.16.306.218.117.087.277.094.875.029.91-.087.954-.102.837-.24-.167-.195.037-.325.51-.325.576 0 .62-.145.124-.37-.204-.094-.437-.174-.517-.174-.233 0-.248-.354-.022-.507.146-.094.19-.195.226-.557.066-.522-.022-.638-.466-.638-.204 0-.314.058-.488.232-.124.13-.24.333-.255.456-.03.261-.365.486-.503.348-.066-.065-.058-.13.036-.268.16-.253.146-.37-.065-.463-.248-.116-.364-.11-.474.021-.058.065-.21.109-.4.109-.212 0-.328-.036-.357-.109-.059-.152-.306-.137-.678.044-.327.16-.452.142-.32-.03l.043-.05c.19-.21.08-.26-.313-.152-.19.05-.685.174-1.107.26-.423.095-.954.254-1.18.363-.46.21-.561.398-.219.398.19 0 .379.109.379.225 0 .029-.197.065-.437.08-.48.036-.546.072-.48.238.043.124.08.124 1.835-.007.422-.029.546-.007.64.087.205.196.096.283-.327.275-.218-.007-.845 0-1.399.022-.815.03-1.02.058-1.049.152-.087.21.197.312.794.29.306-.007.583.007.612.036.03.03-.021.138-.123.24-.146.151-.153.195-.066.253.146.094.94.036 1.53-.116zm.298 46.327.175-.138-.16-.174c-.204-.217-.211-.275-.03-.275.081 0 .161-.065.19-.137.066-.225.328-.515.46-.515.058 0 .269.109.466.24.327.217.437.42.276.52-.109.066-.087.225.044.356.102.108.131.108.32-.008.197-.108.365-.362.365-.543 0-.166-.605-.869-.83-.963a3.135 3.135 0 0 0-.562-.145c-.313-.043-.357-.029-.568.174-.13.123-.306.224-.408.224-.094 0-.291.058-.43.124-.335.152-.626.05-.626-.232a.372.372 0 0 0-.175-.297c-.102-.058-.19-.167-.204-.232-.014-.065-.087-.123-.16-.123-.11 0-.16-.109-.277-.529l-.138-.536.182-.514c.13-.391.167-.609.138-.87-.036-.282-.014-.39.102-.55.08-.108.175-.326.197-.485.058-.326-.058-.478-.408-.565-.139-.029-.204-.094-.204-.188 0-.21-.386-.34-.91-.312-.416.03-.78.03-1.4.015-.152 0-.393.021-.538.043-.408.073-.43-.08-.073-.405.24-.225.298-.326.298-.536 0-.145.051-.363.117-.486.065-.123.102-.275.08-.347a.45.45 0 0 1 .036-.254c.059-.101.088-.109.139-.029.029.05.08.08.102.05.073-.072.175-.564.182-.832 0-.16.044-.26.153-.312a.867.867 0 0 0 .255-.326c.058-.137.167-.282.255-.325.116-.066.138-.124.102-.276-.073-.29-.182-.384-.357-.333-.087.03-.24.05-.35.044-.109-.008-.364.05-.568.13-.204.08-.466.145-.583.145-.48 0-.728.297-.728.876 0 .13-.044.203-.146.232-.08.022-.167.094-.19.174-.101.304-.196.442-.29.405-.168-.065-.329.116-.278.312.037.137.015.174-.102.174-.08 0-.189-.073-.247-.16-.11-.159-.11-.159-.452-.029-.19.073-.546.174-.794.225-.444.094-.452.094-.648-.087a.97.97 0 0 0-.474-.232c-.27-.043-.277-.058-.335-.405l-.095-.522c-.014-.087-.109-.239-.196-.326-.117-.108-.226-.391-.335-.818l-.16-.652.145-.471c.073-.26.16-.616.19-.797.065-.384.182-.637.517-1.093.204-.283.247-.406.247-.71 0-.21-.05-.471-.109-.594-.11-.21-.11-.218.153-.45a3.08 3.08 0 0 1 .444-.325.59.59 0 0 0 .24-.275c.06-.145.117-.174.35-.174.219 0 .328-.051.496-.225.116-.123.291-.253.386-.29.095-.036.153-.094.124-.115-.044-.051.7-.312.889-.312.05 0 .189.073.306.16.21.152.218.152.466.021.211-.116.27-.123.364-.043a.414.414 0 0 1 .117.275c0 .167.021.181.276.138.678-.11.816-.102.896.036.037.08.153.137.255.137.175 0 .19-.021.146-.231a4.06 4.06 0 0 1-.065-.37.437.437 0 0 0-.168-.224c-.219-.16-.036-.276.532-.348.408-.043.51-.036.575.05.073.095.139.095.437.03.416-.094 1.028-.008.991.145-.036.18.146.297.459.297.19 0 .342-.044.4-.116.154-.174.452-.095.584.152.058.116.167.26.24.326.102.087.138.239.153.746.007.347-.007.652-.044.673-.102.066-.065.276.088.464.08.101.145.232.145.297 0 .065.08.239.182.384.102.145.183.347.183.442 0 .195.072.231.407.195.168-.022.248-.065.248-.152 0-.065.051-.26.117-.442.196-.558.204-1.593.022-2.426-.226-1.043-.204-1.355.13-1.847.295-.425.717-.862.892-.932l.041-.01c.051 0 .197-.08.313-.18.124-.102.285-.182.372-.182.102 0 .153-.043.153-.138 0-.21.393-.586.605-.586.116 0 .32-.116.517-.283.182-.16.393-.304.473-.333.08-.022.204-.174.27-.333.11-.246.16-.283.364-.283.248 0 .43-.152.372-.318-.022-.051-.008-.232.036-.399.051-.203.051-.326 0-.39-.05-.059-.05-.204-.015-.414.037-.18.066-.449.073-.6 0-.37.248-.848.437-.848.183 0 .183.043-.036.39-.124.204-.16.348-.131.493a.562.562 0 0 1-.08.384c-.117.181-.16.572-.059.529.03-.015.263-.246.518-.514.48-.522.51-.63.335-1.087-.051-.116-.03-.13.196-.087.219.044.3.015.518-.174.138-.13.32-.376.393-.55l.131-.326h.379c.32 0 .408-.029.568-.195.102-.11.182-.218.182-.247 0-.021.131-.116.299-.203.27-.152.328-.159.75-.086.605.108.59.108.685-.11.066-.13.066-.224.007-.325-.072-.138-.087-.138-.204-.036-.094.087-.145.094-.21.029-.125-.123-.11-.326.021-.377.058-.022.11-.101.11-.181 0-.08.152-.29.349-.47.262-.254.4-.334.576-.334.32 0 .604-.116.604-.254 0-.08.08-.108.277-.108.153 0 .342-.05.422-.109.073-.058.255-.137.401-.18.153-.044.284-.131.306-.211.022-.087.102-.13.248-.138.116 0 .386-.072.604-.152l.109-.041.16-.06c.147-.054.167-.05.17-.001l-.001.052c0 .108-.416.376-.693.449-.102.021-.182.08-.182.116 0 .043-.08.152-.182.246-.16.145-.167.188-.102.384.146.405.568.347 1.137-.145.13-.109.357-.225.51-.254.145-.029.371-.108.488-.173.099-.058.277-.121.43-.155l.109-.02c.393-.057.889-.304.889-.434 0-.181-.183-.253-.765-.304-.554-.05-.984-.232-1.144-.485-.102-.16-.066-.703.05-.746.125-.051.147-.29.03-.355-.036-.03-.167-.008-.291.036-.168.072-.233.072-.32 0-.183-.152-.008-.246.429-.225.35.015.43-.014.641-.202.211-.189.233-.232.168-.413-.117-.319-.321-.384-.867-.268-.89.18-1.282.304-1.516.478-.371.275-.998.521-1.092.427-.059-.058.029-.13.313-.268a4.57 4.57 0 0 0 .641-.362.905.905 0 0 1 .495-.181c.197 0 .32-.073.663-.406l.416-.405 2.054.036c1.967.029 2.061.029 2.185-.109.066-.08.328-.282.576-.456.335-.24.553-.34.874-.391.48-.08 1.224-.45 1.37-.681.174-.275.204-.674.08-.92-.095-.174-.16-.217-.357-.217-.212 0-.248-.03-.284-.196a.48.48 0 0 1 .05-.326c.066-.116.052-.16-.058-.246a.677.677 0 0 0-.342-.101c-.138 0-.219-.044-.248-.145-.036-.109-.109-.145-.328-.145-.255 0-.284-.022-.306-.196-.014-.145-.087-.232-.24-.297-.393-.174-.437-.21-.459-.398-.022-.16.007-.188.182-.21.197-.022.204-.036.175-.384-.014-.196-.065-.427-.124-.507a.558.558 0 0 1-.102-.29c0-.08-.065-.275-.145-.434a1.443 1.443 0 0 1-.146-.544c0-.253-.102-.434-.248-.434-.095 0-.7.652-.7.76 0 .109-.51.471-.677.471-.065 0-.247.065-.408.152-.313.16-.437.13-.684-.137-.08-.087-.19-.13-.277-.109-.124.036-.139 0-.139-.29 0-.333.212-.76.481-.956a.222.222 0 0 0 .088-.224c-.022-.116-.095-.138-.481-.16-.357-.014-.46-.043-.423-.123.022-.058-.058-.16-.196-.246a4.987 4.987 0 0 1-.43-.304c-.19-.152-.226-.16-.605-.073-.277.065-.656.073-1.195.044-.75-.051-.8-.044-.874.094-.043.08-.08.26-.08.391 0 .138-.08.355-.182.507-.102.145-.182.362-.182.478 0 .21-.299.478-.925.847-.284.167-.306.42-.044.457.379.058.517.695.233 1.057-.095.123-.138.261-.116.37.021.145 0 .18-.124.18-.168 0-.401.138-.7.406-.182.167-.546.32-1.165.493-.612.174-.656.217-.656.666 0 .218-.05.515-.116.667a2.468 2.468 0 0 0-.139.463c-.022.181-.335.674-.503.797a.202.202 0 0 1-.16.007c-.058-.022-.153.015-.211.08-.146.137-.357.152-.452.022-.073-.095-.24-.507-.364-.899-.066-.195-.036-.325.211-.941.16-.391.32-.753.365-.797.182-.217.014-.29-.75-.297-.409-.007-.766-.036-.788-.058-.021-.022-.043-.13-.043-.232 0-.195-.008-.195-.452-.173-.444.029-.459.021-.539-.181-.153-.392-.19-.42-.568-.479-.248-.043-.394-.108-.445-.202-.094-.167-.619-.196-.845-.037-.167.116-.422.174-.451.095-.008-.03.036-.13.102-.232a.473.473 0 0 0 .073-.362.519.519 0 0 1 .029-.334c.13-.246.022-.42-.299-.47-.364-.058-.379-.261-.022-.45.088-.043.175-.18.197-.296.044-.21.32-.45.845-.725.102-.05.27-.174.371-.26.102-.087.24-.182.314-.203.065-.03.124-.087.124-.138 0-.05.247-.188.546-.304.51-.196.546-.217.546-.42 0-.196.022-.217.182-.174.102.022.263.065.365.087.342.087.539-.246.24-.391-.146-.065-.124-.08.197-.087.204 0 .444-.007.546-.007.095-.008.219-.058.262-.124.059-.086.204-.123.445-.13.19-.007.451-.036.568-.065.306-.08 1.107-.66 1.15-.833a.193.193 0 0 1 .183-.145c.087 0 .168-.029.19-.065.021-.036.16-.087.305-.109.226-.043.255-.072.234-.246-.022-.181 0-.196.276-.217.204-.015.343.014.416.087a.532.532 0 0 0 .335.116c.175 0 .226-.03.226-.138 0-.21.116-.246.356-.109.19.109.248.116.554.03.277-.08.743-.356 1.056-.63.022-.023-.021-.073-.094-.124-.284-.21-.051-.746.24-.565.168.101.335.05.386-.116.022-.065.058-.181.088-.253.043-.095.014-.124-.124-.124a.478.478 0 0 1-.306-.137c-.146-.16-.685-.232-1.042-.138-.19.05-.255.116-.32.355-.088.275-.263.398-.489.34-.05-.014-.13.058-.182.153-.05.108-.233.231-.488.326a4.52 4.52 0 0 0-.583.275c-.24.174-.488.166-.582-.022-.139-.253-.059-.442.218-.536.212-.072.255-.123.255-.297 0-.188-.029-.21-.27-.232-.189-.014-.29.015-.364.109-.123.174-.495.406-.553.355-.073-.08.196-.55.32-.55.066 0 .102-.051.088-.13-.03-.131-.277-.16-.51-.052-.102.037-.131.015-.131-.101s.058-.167.204-.196c.204-.043.21-.058.21-.47.008-.406-.006-.442-.203-.536-.204-.11-.474-.124-.758-.058a.718.718 0 0 0-.27.152c-.072.058-.13.08-.13.043 0-.036-.146.094-.328.29-.175.195-.394.391-.481.435-.233.115-.197.21.124.333.43.166.488.21.386.333-.044.058-.153.101-.24.101-.204 0-.365.109-.306.21.029.044.13.08.233.08.094 0 .175.029.175.072 0 .037-.095.073-.212.073-.116 0-.247.05-.298.109-.051.057-.19.108-.314.108-.123 0-.327.036-.466.087-.182.065-.226.116-.204.232.051.203-.058.355-.226.319-.21-.037-.21-.268.015-.5.218-.225.218-.232-.335-.348-.364-.08-.525-.014-.882.37-.196.217-.196.217-.597.123a1.757 1.757 0 0 0-.823 0c-.4.08-.437.072-.7-.102-.196-.13-.327-.174-.466-.137-.211.05-.553-.21-.488-.377.058-.16-.313-.203-.728-.08a6.014 6.014 0 0 1-.722.167c-.24.029-.35.08-.35.152 0 .109.278.109 1.093 0 .24-.029.139.138-.123.188-.678.152-.867.225-1.057.428l-.204.217-.284-.311-.277-.312-.357.08c-.378.094-2.178.152-2.25.08-.03-.03-.03-.116 0-.196.036-.13.101-.152.43-.152.487 0 .64-.13.407-.362-.138-.138-.211-.153-.568-.11a2.162 2.162 0 0 1-.852-.079c-.24-.065-.576-.145-.743-.18a2.163 2.163 0 0 1-.583-.21c-.379-.196-.743-.19-1.078.043-.299.195-.474.188-.474-.03a.349.349 0 0 0-.11-.231c-.094-.08-.152-.058-.356.137-.168.16-.299.232-.415.21-.146-.014-.175-.072-.197-.333-.03-.362-.175-.405-.503-.13-.226.188-.553.304-1.056.377-.19.021-.452.123-.575.217-.197.138-.328.174-.7.174-.4 0-.488.029-.648.188-.233.225-.496.21-.525-.029-.022-.116.015-.16.11-.16.072 0 .298-.079.495-.18.248-.116.488-.174.75-.181.365 0 .962-.24.962-.384 0-.073-.794.021-1.064.13-.262.109-.743.196-1.158.217-.634.037-1.07.16-1.253.363-.16.166-.226.188-.452.152-.145-.022-.459-.138-.692-.261-.298-.152-.532-.217-.78-.217-.261 0-.4-.044-.56-.182-.255-.21-.35-.224-.663-.065-.211.102-.262.102-.576 0-.539-.174-1.952-.355-2.433-.311-.371.029-.451.014-.568-.109-.116-.123-.197-.145-.466-.108-.262.036-.357.014-.51-.102-.291-.224-.714-.26-.969-.08-.168.116-.35.145-1.005.174-.678.022-.845.051-1.108.203-.276.152-.335.16-.488.073-.196-.102-.393-.066-1.15.21-.234.087-.503.152-.613.152-.109 0-.298.094-.444.217-.175.16-.32.217-.517.217-.153 0-.394.065-.547.145-.167.094-.415.145-.648.145-.226.007-.444.05-.524.109a.582.582 0 0 1-.277.108c-.19 0-.16.138.05.218.248.094.372.369.263.572-.08.137-.066.152.138.152.255 0 .277.087.088.398-.117.189-.182.218-.46.218-.174.007-.378.036-.443.065-.095.043-.132.029-.132-.05 0-.066.066-.139.146-.16.299-.094.131-.181-.342-.181-.38 0-.554.036-.75.159a1.343 1.343 0 0 1-.547.174c-.255.022-1.231.326-1.326.42-.087.087.08.188.328.195.197.008.226.022.087.044a1.1 1.1 0 0 0-.35.167c-.145.123-.152.137-.043.202.146.08 1.763.022 1.945-.072.11-.058.124-.044.08.138-.073.311-.095.325-.4.275-.27-.044-.292-.036-.387.18-.153.378-.947.617-1.522.472-.168-.044-.277-.008-.59.21-.211.145-.466.26-.568.26-.11 0-.32.11-.496.254-.196.167-.379.253-.517.253-.255 0-.335.153-.219.406.066.152.059.188-.05.217-.35.109-.43.247-.343.587.051.203.124.203.78.015.189-.051.371-.073.393-.044.066.065-.255.413-.386.413-.051 0-.131.08-.168.181-.036.094-.167.225-.291.29-.117.058-.219.13-.219.152 0 .058.89-.05 1.035-.123.218-.116.48 0 .51.21l.022.195.225-.239c.197-.21.24-.224.438-.159.153.05.284.058.415.007.16-.065.196-.058.196.03 0 .072-.08.108-.24.108-.19 0-.262.043-.328.18-.05.102-.145.182-.226.182-.08 0-.204.08-.284.181-.116.145-.211.181-.444.181-.335 0-.627.123-.838.355a.52.52 0 0 1-.357.152c-.124 0-.386.08-.59.174-.568.26-.845.348-1.282.398-.219.03-.474.087-.56.138a.836.836 0 0 1-.358.087c-.19 0-.896.413-.903.521 0 .095.306.145.495.073.11-.044.292-.094.408-.123.11-.022.291-.102.393-.167.11-.072.35-.13.561-.13.488-.015.845-.094.998-.225.08-.072.197-.094.343-.058.182.036.262.008.495-.203.24-.217.343-.26.787-.304.583-.065.881-.188.947-.398.022-.08.102-.145.168-.145a.6.6 0 0 0 .29-.116c.096-.065.292-.116.438-.123.146 0 .32-.043.386-.101.066-.058.292-.124.495-.16.255-.036.445-.123.583-.253.11-.109.32-.21.467-.24.225-.035.262-.064.284-.267.021-.247.08-.276.808-.413.277-.05.503-.145.656-.275.313-.268.656-.442.889-.442.109 0 .298-.08.422-.174.277-.21.743-.283.743-.116 0 .073-.102.123-.335.145-.19.022-.48.138-.692.268-.197.123-.452.246-.568.268-.124.029-.32.145-.452.26-.131.11-.277.218-.328.232-.05.015-.073.08-.043.153.065.18.422.152.823-.058.226-.116.459-.181.677-.181.248 0 .372-.037.467-.145.094-.109.218-.145.502-.152.656-.015.75-.066.75-.392 0-.246.022-.29.175-.311.27-.043.481.043.707.268.219.225.758.464 1.013.456.08-.007.262-.029.4-.05.299-.051 1.159.224 1.406.449a.96.96 0 0 0 .284.188c.066.022.139.138.168.254.03.159.116.246.335.34.32.145.32.203-.015.195-.196-.007-.218.015-.174.153.072.231.065.34-.066.695-.073.174-.11.362-.087.42.065.152.4-.05.663-.406.145-.195.276-.297.386-.297.123 0 .196-.072.276-.26.102-.24.102-.276-.014-.399-.117-.13-.117-.137.044-.137.153 0 .16.021.116.326-.036.239-.022.37.058.485.197.275.153.739-.102 1.021-.189.218-.196.254-.102.348.059.065.124.275.146.47.044.341.03.377-.16.522-.437.326-.466.377-.32.594.065.094.094.08.225-.065.211-.26.343-.094.168.203l-.139.232.24.18c.27.218.307.392.074.392-.124 0-.204.08-.3.297-.174.37-.123.5.198.5.182 0 .262.036.298.137.022.08.175.188.328.254.262.101.291.137.291.369 0 .181.044.283.175.362.117.08.182.203.212.42.036.261.014.333-.146.5-.175.181-.204.188-.342.094-.175-.123-.452-.145-.518-.036-.08.123-.313.08-.364-.072a.21.21 0 0 0-.19-.145c-.109 0-.138.058-.152.304-.015.413-.015.427.05.652.044.166.015.232-.174.405a.777.777 0 0 0-.255.435c-.015.145-.139.348-.328.558-.16.174-.299.355-.299.39 0 .095-.553.769-.888 1.073-.3.282-.38.427-.569 1.036-.138.449-.284.746-.422.898-.188.194-.215.258-.241.814l-.007.15c-.029.586-.014.76.073.84.117.115.138.586.051.977-.044.21-.036.246.102.283.233.058.19.427-.044.405-.102-.014-.167.022-.167.08 0 .195.298.768.444.84.11.065.139.145.124.384l-.022.304.306-.022c.248-.021.306 0 .35.116.022.08.116.167.204.189.087.021.284.188.437.37.262.31.284.361.306.89.014.304.073.746.138.978.066.232.117.565.117.739 0 .253.043.376.218.565.124.137.219.297.219.354 0 .058.065.167.146.24.196.173.182.296-.044.514-.153.152-.226.18-.43.145-.32-.066-.408.08-.168.282.095.08.197.203.226.275.051.138.518.355.656.297.05-.014.233.094.408.254.313.29.313.297.27.673-.059.507.065.833.458 1.21.263.254.306.333.277.5-.08.384.19.485.561.21.139-.102.139-.13.044-.42-.124-.384-.255-.558-.466-.587-.16-.022-.19-.138-.306-1.282a1.817 1.817 0 0 0-.182-.616c-.073-.123-.139-.275-.139-.34a.33.33 0 0 0-.11-.21c-.065-.058-.108-.217-.108-.427s-.059-.428-.153-.58c-.117-.195-.132-.26-.051-.311.072-.051.065-.087-.051-.167-.423-.319-.416-.297-.372-.89.022-.305.044-.653.044-.769l.007-.21.168.16c.123.116.225.152.327.116.102-.03.168-.008.197.065.022.065.11.116.182.116.124 0 .139.058.139.478 0 .34.065.666.21 1.108l.086.255c.08.25.144.473.155.549.015.137.08.188.299.239.248.058.27.087.27.319 0 .195.058.311.262.514.255.253.262.268.145.456a.795.795 0 0 0-.116.333c0 .073.335.471.758.884.422.42.779.84.808.934.022.102.146.326.27.493.167.232.211.362.182.514-.022.13.014.297.116.478l.16.283-.181.13c-.175.13-.175.145-.051.232.123.094.116.108-.059.348-.233.311-.233.398.03.659.123.116.24.275.262.355.029.08.109.144.189.144.102 0 .182.087.255.261.087.203.138.254.255.225.08-.022.255.021.379.094.13.072.379.152.546.18.175.03.372.117.437.197.24.275.882.71 1.057.71.094 0 .298.079.451.188.678.456 1.545.717 1.989.594.153-.037.357-.167.466-.283.153-.16.262-.21.474-.21.284 0 .604.16.604.297 0 .152.467.768.918 1.202.437.428.488.457.802.457.218 0 .43.058.59.152.13.087.444.21.692.29.444.13.459.13.7-.008.305-.188.327-.18.29.037-.029.144.051.282.401.673.605.681.641.753.656 1.224.007.348.036.442.196.58.102.087.24.166.321.166.11 0 .124-.036.087-.188-.065-.26.08-.152.212.16.058.137.182.275.284.318.153.058.182.123.204.413l.022.348.524-.022c.583-.022.794.05.896.318.035.087.093.146.164.167l.055.007c.094 0 .175.073.218.181.08.218.284.232.517.044zM50.38 6.23c-.015-.137-.073-.202-.182-.217a.432.432 0 0 1-.24-.13c-.14-.16-.336-.123-.605.116-.153.13-.335.217-.46.217-.247 0-.451.109-.37.195.036.03.181.058.327.066.146.007.488.036.75.065.59.065.816-.022.78-.312zm8.465.276c.218 0 .583-.268.583-.435 0-.094-.124-.094-.183 0-.021.036-.174.101-.327.145-.357.094-.401.29-.073.29zm.736 1.014c.386 0 .459-.022.699-.24.342-.318.299-.485-.139-.485-.174.008-.378.044-.466.094-.291.167-.619.486-.575.558.022.036.24.073.48.073zm1.457-.218c.218-.123.145-.318-.132-.347-.123-.015-.247.007-.27.05-.028.044.023.145.103.225.124.123.175.13.299.072zm-7.599 2.825c.24-.123.467-.217.51-.217.044 0 .146-.065.219-.145.131-.145.138-.145.306.036.204.218.64.348.918.283.124-.03.211-.015.255.05.08.138.196.015.255-.275.043-.224.036-.232-.233-.253-.219-.015-.292-.058-.306-.167-.044-.217-.233-.406-.576-.55-.226-.095-.313-.174-.313-.283 0-.203-.182-.174-.648.116-.212.13-.438.304-.496.384-.058.087-.146.152-.197.152-.05 0-.13.08-.174.181-.066.145-.139.181-.335.181-.255 0-.481.152-.481.319 0 .058.116.087.35.087.298-.007.342.014.364.152.029.21.072.21.582-.05zm1.108.435c0-.225-.598-.196-.998.043-.314.189-.401.348-.219.406.328.116 1.217-.217 1.217-.45zm.619.847c.102.03.473-.326.473-.449 0-.138-.284-.138-.458 0-.139.102-.146.406-.015.45zM7.049 12.59c.212-.18.234-.224.146-.289-.058-.036-.138-.065-.182-.058-.036.007-.182.022-.313.036-.292.037-.357.174-.182.377.167.196.226.188.531-.065zm5.894 1.326c.386-.021.495-.101.335-.268-.146-.145-.182-.145-.364-.014a.857.857 0 0 1-.219.108c-.036 0-.073.051-.073.095 0 .065.102.087.32.08zm-.816.587a1.94 1.94 0 0 1 .379-.174c.306-.08.233-.253-.117-.275-.233-.015-.342.014-.459.13-.124.123-.13.174-.073.297.08.138.095.145.27.022zm10.22.695a1.13 1.13 0 0 1 .401-.072c.284 0 .401-.145.255-.326-.109-.13-.255-.13-.553-.007-.226.101-.357.29-.277.413.022.036.095.036.175-.008zm30.947.254c.371-.094.532-.543.196-.543-.13 0-.225.072-.327.231-.168.276-.124.377.13.312zm-30.859.753c.262-.536.291-.637.255-.746-.044-.109-.277-.145-.466-.065-.051.014-.095.087-.095.152a.437.437 0 0 1-.124.246c-.109.123-.109.138 0 .261.073.072.124.21.124.297 0 .232.16.16.306-.145zm-.845 1.058a.368.368 0 0 1 .306-.181c.32 0 .08-.145-.32-.189-.292-.036-.394-.014-.54.102-.174.144-.182.144-.043.297.19.21.451.195.597-.03zm29.263.543c.284 0 .561-.174.452-.283-.117-.116-.43-.159-.561-.072a.267.267 0 0 0-.131.21c0 .116.05.145.24.145zm-29.642.521c.03-.05.037-.087.015-.087s.007-.144.058-.318c.095-.297.087-.42-.022-.399a2.083 2.083 0 0 1-.204.044c-.196.036-.204.101-.029.521.08.189.153.29.182.24zm44.991 3.926c0-.043.051-.123.117-.18.175-.146.342-.508.27-.58-.044-.044-.168-.037-.306.014-.306.109-.35.05-.146-.217.153-.203.153-.232.044-.348-.095-.116-.102-.145-.008-.268.139-.195.131-.355-.043-.558-.117-.137-.153-.152-.212-.072-.036.05-.102.072-.145.05-.044-.028-.131 0-.197.066-.175.166-.35.101-.393-.145-.037-.188-.073-.217-.24-.196-.11.008-.197-.014-.197-.057 0-.087.437-.515.713-.703.197-.13.219-.384.037-.377-.073.008-.24.044-.379.087-.306.094-1.034.76-1.428 1.304-.182.253-.393.449-.56.529-.183.08-.278.174-.278.26 0 .225-.138.42-.29.42-.198 0-.314.232-.19.399.073.101.145.116.306.072.116-.029.335-.05.488-.043.72.022.983.022 1.194-.03a.854.854 0 0 1 .357-.006c.11.043.11.058-.007.188-.073.08-.19.145-.27.145-.182 0-.167.123.044.253.219.145.416.066.598-.253.13-.21.502-.427.59-.333.029.021-.03.145-.117.268-.146.195-.153.239-.065.326.255.253.713.246.713-.015zm-42.397-1.448c0-.196-.037-.268-.146-.297-.095-.022-.146-.102-.146-.21 0-.348-.138-.544-.488-.696a2.438 2.438 0 0 1-.48-.26c-.073-.066-.277-.124-.467-.138l-.328-.015.044.232c.03.123.146.319.262.427.124.11.219.247.219.312 0 .058.08.145.167.174.095.036.212.16.263.282.065.152.196.254.488.37.488.202.612.166.612-.181zm37.13-.261c.336-.015.43-.05.445-.145.014-.087-.044-.16-.182-.21-.11-.044-.299-.13-.423-.181a2.408 2.408 0 0 0-.524-.13c-.27-.022-.313-.015-.313.108 0 .08.058.167.13.188a1.1 1.1 0 0 1 .285.218c.145.152.226.173.583.152zm-.67 2.26c.073-.08.182-.145.233-.145.059 0 .095-.044.073-.094-.014-.051-.167-.087-.386-.087-.444-.008-.772-.138-.714-.29.059-.145-.138-.145-.262 0-.138.167-.03.464.204.514.11.03.262.094.342.145.197.138.357.123.51-.043zm1.304.318c.124-.05.16-.39.044-.39-.036 0-.073-.052-.073-.11 0-.057.03-.108.066-.108.08 0 .138-.217.102-.348-.051-.123-.168-.101-.46.109-.138.094-.276.239-.305.319-.03.072-.088.137-.131.137-.131 0-.08.203.087.319a.8.8 0 0 0 .67.072zM46.643 38.593c.13 0 .247-.167.298-.435.044-.188.022-.26-.08-.34-.24-.167-.291-.109-.298.34-.008.304.021.435.08.435zm.67.71c.138-.03.19-.269.08-.399-.095-.123-.146-.116-.32.015-.124.094-.124.101-.008.108.073 0 .124.058.124.152 0 .102.036.138.124.123zm-1.115.1c-.043-.151-.24-.216-.342-.108-.095.094-.051.37.073.413.167.065.32-.101.27-.304zm.816 3.666c1.071-.022 1.231-.102.889-.42a.634.634 0 0 0-.408-.145c-.182 0-.255-.036-.284-.145-.022-.08-.08-.145-.131-.145-.051 0-.131-.043-.182-.101-.044-.058-.124-.094-.182-.073-.124.051-.408-.101-1.006-.514-.298-.203-.553-.326-.685-.326-.24 0-.393-.116-.335-.253.015-.058-.029-.13-.102-.174-.124-.058-.342-.094-1.333-.181-.138-.015-.495.021-.787.072-.291.05-.626.167-.743.246-.233.167-.546.718-.459.804.11.102.46-.021.46-.159 0-.109.05-.138.283-.138.219 0 .306-.036.401-.18.124-.189.488-.32.75-.269.19.037.226.16.059.16-.153 0-.139.188.022.253.065.03.364.065.663.087.459.036.517.058.408.138-.197.145-.059.246.335.246.466 0 .648.094.648.348 0 .232.066.333.24.398a.47.47 0 0 1 .197.225c.087.246.211.268 1.282.246zm1.661-1.767c.058-.153.058-.145-.073-.276-.167-.166-.255-.137-.204.066.03.108.015.18-.036.18-.044 0-.08.03-.08.073 0 .116.342.08.393-.043zm-6.228.68c.225-.021.262-.05.262-.202 0-.152-.037-.189-.226-.203-.138-.015-.277.022-.35.101-.182.174-.022.333.314.304zm7.481 2.912c.04 0 .11-.074.165-.174l.04-.08c.116-.26.24-.31.494-.173.117.065.175.05.285-.073l.145-.152.284.145c.38.196.408.188.554-.109.146-.318.051-.47-.299-.47a.512.512 0 0 1-.371-.152c-.073-.08-.306-.232-.517-.326-.38-.181-.955-.24-1.785-.189-.343.022-.62.196-.415.261.058.015.204.065.32.101.168.051.211.102.197.225a.372.372 0 0 0 .065.268c.168.21-.029.275-.502.181-.554-.123-.772-.087-.802.116-.021.13.022.167.219.196.131.014.306.036.386.036.554.007 1.202.108 1.202.188 0 .094.153.181.335.181zm3.766-.311c.35-.16.226-.268-.444-.377-.299-.05-.473-.058-.524-.007-.336.333.43.637.968.384zm-7.86.188c.138-.043.328-.065.423-.043.218.043.4-.138.262-.247-.095-.065-.933-.239-1.18-.239-.066 0-.117.058-.117.13 0 .073.08.21.182.305.16.152.211.16.43.094zM3.516 16.211c-.16.08-.327.145-.378.145-.124 0-.124.283.007.333.05.022.204-.029.342-.108.139-.08.372-.167.525-.189.204-.043.27-.08.24-.159a.85.85 0 0 1-.044-.138c0-.086-.444-.014-.692.116zm-2.396.884c-.11.138-.16.26-.117.304.087.087.379 0 .59-.166.146-.116.153-.152.073-.254-.153-.18-.342-.137-.546.116zm-.991.24c-.095.1-.146.202-.124.23.08.073.415-.108.415-.224 0-.188-.116-.188-.291-.007z" fill="#0a84ff" fill-rule="nonzero"/>
</svg>
