<svg width="43" height="70" viewBox="0 0 43 70" xmlns="http://www.w3.org/2000/svg">
    <path d="M19.56 68.098c.042-.04.07-.162.07-.278 0-.15.077-.324.264-.607.48-.746.397-.682.882-.642.427.04.433.04.433-.098 0-.185-.175-.33-.398-.33-.157 0-.187-.023-.187-.133 0-.075-.064-.196-.14-.266a1.051 1.051 0 0 1-.327-.723c0-.277.187-.63.374-.717.164-.075.17-.098.152-.82l-.012-.44.298-.272c.164-.15.363-.3.444-.341.31-.14.392-.602.17-.96-.07-.104-.134-.128-.397-.128-.252 0-.357-.034-.55-.167a2.11 2.11 0 0 1-.275-.232c-.017-.034-.14-.115-.263-.179-.28-.144-.409-.37-.409-.729 0-.225.03-.294.193-.456a.783.783 0 0 1 .427-.232 1.41 1.41 0 0 0 .315-.08c.1-.053.187-.434.182-.787 0-.127-.006-.416-.012-.636v-.451c.006-.023.07-.04.152-.04.187 0 .187-.105-.006-.284-.181-.174-.164-.318.053-.341.11-.012.157-.052.157-.127 0-.14-.099-.197-.298-.186a.807.807 0 0 1-.31-.046c-.134-.052-.151-.087-.151-.358 0-.301-.006-.307-.28-.48-.31-.197-.387-.405-.211-.579.14-.133.56-.086.806.093.158.121.263.139.748.156.509.017.573.012.684-.098.135-.133.17-.503.059-.538-.035-.012-.094-.243-.129-.52-.053-.434-.047-.533.041-.764.123-.318.257-.37.643-.243.41.14.368.145 1.584-.231.257-.075.532-.139.602-.139.31 0 .48-.18.842-.896.438-.873.438-.862-.187-1.671-.106-.14-.176-.295-.176-.405a1.72 1.72 0 0 0-.105-.469l-.105-.289-.275.018c-.356.023-.573-.099-.736-.405-.111-.203-.123-.278-.07-.41.081-.209.18-.197.432.04a.779.779 0 0 0 .503.225c.315.035.584.156.841.365.205.173.316.173.655.011l.269-.127.245.127c.31.162.34.162.515-.023.076-.081.222-.19.315-.237.345-.174.497-.364.497-.63 0-.214.035-.284.228-.469.286-.289.374-.457.561-1.122.175-.618.21-.67.462-.734a.401.401 0 0 0 .269-.226c.047-.098.158-.237.245-.306a.505.505 0 0 0 .193-.336c.14-.867.322-1.318.842-2.087.56-.833.55-.798.502-1.504-.035-.491-.07-.659-.18-.85a1.053 1.053 0 0 1-.03-.994c.117-.226.42-.527.883-.874.146-.11.333-.295.42-.416.205-.278.427-.393.889-.451.35-.04.397-.064.76-.393.578-.52.69-.567 1.543-.579.397 0 .777-.023.847-.04.07-.017.205-.15.292-.295.094-.145.316-.387.491-.538l.322-.277.017-.434c.012-.237.024-.463.024-.497.006-.04.093-.11.199-.15.274-.116.362-.25.344-.55-.011-.295.035-.37.357-.573.298-.185.339-.323.24-.746a3.82 3.82 0 0 1-.082-.676c0-.307.017-.353.21-.538.129-.133.193-.243.17-.3-.158-.417-.158-.81.011-.949.158-.127.193-.318.106-.607a4.72 4.72 0 0 1-.117-.74 4.135 4.135 0 0 0-.123-.694c-.105-.301-.1-.4.012-.62.081-.161.081-.196 0-.416-.053-.127-.076-.3-.053-.381.047-.208.298-.451.538-.526.234-.076.415-.209.415-.313 0-.034.076-.167.17-.295.093-.121.186-.283.204-.352.023-.076.158-.382.304-.683.222-.474.28-.55.397-.55.111 0 .205-.092.421-.41.152-.231.438-.595.631-.82l.35-.406.042-.584c.023-.364.082-.711.164-.925.157-.44.157-.486-.053-1.076-.094-.271-.175-.601-.175-.74 0-.22-.036-.289-.287-.55l-.292-.3-.573-.017c-.555-.018-.579-.023-.73-.197-.088-.098-.217-.185-.293-.19a1.156 1.156 0 0 1-.17-.024c-.017 0-.186-.208-.373-.457-.328-.433-.895-.925-1.298-1.133a.728.728 0 0 1-.28-.266c-.111-.214-.287-.226-.877-.058a3.011 3.011 0 0 1-.637.116c-.228 0-1.134-.272-1.473-.445-.234-.122-.585-.076-.976.12-.316.169-.41.157-.252-.016.187-.203.135-.428-.17-.775-.163-.191-.344-.341-.437-.359a.712.712 0 0 1-.316-.208c-.123-.139-.199-.168-.41-.168a.599.599 0 0 1-.443-.156c-.176-.144-.357-.196-.976-.283-.415-.064-.52-.006-.708.393-.21.428-.806.972-1.075.972-.14 0-.164-.024-.164-.162 0-.203.094-.301.292-.301.217 0 .363-.122.515-.428l.257-.532c.175-.353.111-.445-.34-.492a12.9 12.9 0 0 0-.999-.046c-.52-.006-.672.012-.742.087-.1.092-.1.11-.117.688-.006.347-.006.347-.187.364-.105.012-.286.104-.42.22-.188.156-.287.197-.486.197h-.251l.45-.428c.245-.237.45-.469.45-.526 0-.052.064-.232.146-.4.105-.22.21-.335.374-.427.164-.093.252-.191.298-.336.041-.115.146-.289.234-.387.216-.255.363-.544.34-.694-.013-.098-.1-.15-.387-.243-.204-.07-.391-.162-.42-.202-.024-.047-.059-.29-.076-.538-.03-.376-.059-.486-.2-.665-.134-.18-.169-.29-.192-.642l-.03-.434-.192-.046c-.17-.046-.222-.104-.38-.44-.21-.45-.246-.485-.474-.445-.122.023-.21-.011-.339-.116a.593.593 0 0 0-.368-.144c-.152 0-.228-.04-.327-.18-.181-.254-.585-.422-.894-.375a1.055 1.055 0 0 1-.497-.052c-.304-.104-.672-.11-1.116-.018-.415.081-.632.018-.801-.248a3.608 3.608 0 0 0-.439-.498c-.245-.243-.35-.306-.496-.306-.263 0-.427-.174-.427-.451 0-.4-.503-1.006-1.076-1.296-.198-.104-.257-.11-.461-.046-.456.133-.772-.156-.491-.45.45-.487.04-.938-.86-.938-.461 0-.502-.029-.502-.318 0-.185.146-.318.35-.318.281 0 .281-.121 0-.306-.198-.14-.455-.122-.753.046a1.062 1.062 0 0 1-.509.145.92.92 0 0 0-.444.115.793.793 0 0 1-.298.116c-.059 0-.158.087-.222.196-.065.11-.152.209-.193.226-.094.035-.468-.127-.924-.399l-.345-.208-.625.034-.262.019c-.26.018-.502.038-.603.05-.292.041-.432-.074-.432-.352a.577.577 0 0 0-.135-.353c-.129-.144-.175-.156-.573-.162L11.42 1l.017-.301c.024-.33-.023-.382-.403-.451-.152-.029-.228-.012-.286.058-.065.08-.047.121.146.324.21.208.222.23.134.318-.047.052-.245.11-.438.133-.392.046-.649.196-.836.497-.17.278-.321.272-.275-.006.03-.156.006-.231-.082-.318-.058-.058-.11-.144-.11-.185 0-.098.163-.249.327-.295.216-.063.432-.306.432-.486 0-.277-.128-.34-.555-.248-.158.034-.199.08-.38.468-.03.058-.129.087-.286.093-.187 0-.287.04-.433.179-.269.249-.397.306-.836.347-.31.029-.397.058-.467.168-.1.15-.363.254-.637.254-.415 0-.69.4-.702 1.018-.011.503-.04.555-.292.509-.17-.03-.21-.012-.298.127a.834.834 0 0 0-.111.364c0 .191-.018.208-.234.266-.205.058-.234.093-.251.255-.018.179-.035.19-.187.162-.152-.035-.164-.018-.199.185-.023.156-.1.277-.24.404-.117.099-.228.18-.251.18a.33.33 0 0 0-.123.052c-.07.046-.07.07.012.15.058.052.1.185.1.307 0 .127.046.254.122.335.111.116.123.202.129.983.011.85.011.856-.146 1.053a.635.635 0 0 0-.164.44c0 .126-.041.456-.082.728-.053.3-.064.584-.04.728.063.324-.007.428-.281.428-.41 0-.65.324-.65.88 0 .167-.046.26-.204.421-.181.174-.245.203-.49.203-.159 0-.31.035-.346.07-.029.04-.087.242-.122.45-.082.474-.205.636-.561.746-.34.11-.515.33-.608.764-.094.433-.07.85.076 1.237.117.318.146.353.356.416.129.04.333.087.456.105.333.052.269.214-.251.647-.328.266-.462.422-.532.607a2.95 2.95 0 0 1-.216.451c-.164.26-.164.336.017.498.111.104.135.168.111.3a1.09 1.09 0 0 0 .024.382c.04.145.04.266 0 .388-.111.323.21.584.87.688.392.063.474.133.55.462.088.394.444 1.059.748 1.394.152.174.316.416.357.544.04.127.163.33.268.445.24.266.345.474.398.77.07.387.684 1.647 1.04 2.144.187.255.415.642.52.868.1.22.228.503.293.636.058.127.11.324.11.434 0 .225.07.34.533.896.602.729 1.554 1.498 1.91 1.556.317.052.515.138.638.271.058.064.316.22.573.342.257.121.573.277.701.347.129.063.275.138.322.162.052.028.093.15.105.306.023.335.158.463.654.625.41.138.468.185.468.399 0 .075.082.375.181.665.146.41.199.682.234 1.22.03.381.064.786.082.896.03.139-.023.428-.146.896-.216.798-.234 1.059-.094 1.417.076.191.105.422.105.85 0 .51.018.613.117.746.111.14.117.174.053.446-.058.242-.058.462.012 1.168.076.717.087 1.249.046 1.804-.005.04-.081.144-.18.231-.217.185-.223.359-.024.59.14.168.146.208.11.544-.022.214-.093.428-.163.526-.117.168-.117.173-.017.653.058.272.17.66.245.862.076.208.14.428.14.503 0 .07.065.266.147.434.187.399.18.503-.035.914-.182.335-.188.346-.135.861.088.96.03 2.412-.117 2.799-.123.33-.117.48.024.66.233.294.35.63.35 1.034 0 .243.035.469.1.596.093.197.093.208-.03.376-.152.197-.157.277-.046.434.04.063.093.243.11.393.042.306.422 1.075.556 1.122.047.023.158-.012.251-.064.146-.087.193-.087.328-.023.087.04.17.127.18.19.012.064.112.197.223.302.199.185.251.37.146.532-.03.04-.023.144.012.237.046.121.035.214-.041.404-.1.255-.059.405.117.405.122 0 .14.081.07.307-.059.185-.053.231.04.33.06.063.141.115.182.115.134 0 .316.249.316.428 0 .098-.065.318-.147.486-.163.352-.175.497-.058.705.053.093.082.324.088.671 0 .445-.018.55-.117.677-.065.08-.117.167-.117.202 0 .029.052.098.117.156.064.058.117.133.117.168.006.156.122.231.38.237.157.006.31.052.362.104.082.081.076.098-.088.18-.18.092-.21.161-.274.624-.041.254-.03.283.116.405.41.335.439.381.439.653 0 .249.105.434.28.497.03.012.117.18.193.37.117.284.181.365.357.446.117.058.257.18.315.272a.798.798 0 0 0 .24.242c.094.052.17.174.228.382.053.174.146.376.216.457l.129.15.315-.162c.293-.15.328-.156.667-.098.199.035.462.104.578.156.187.081.223.122.223.266 0 .359-.486.382-.69.035-.193-.318-.596-.312-.596.017 0 .185.134.318.368.376.216.052.199.15-.023.15-.234 0-.193.105.081.209.117.046.316.121.439.167.269.099.55.11.643.018zm-6.096-10.485.018-.358c.012-.243-.012-.416-.076-.532a.861.861 0 0 1-.088-.295c0-.139-.245-.405-.38-.405-.046 0-.14.052-.204.116-.146.144-.146.18.006.48.11.208.117.277.07.543-.03.168-.041.33-.024.359.018.029.182.064.357.075l.321.017zm8.242-.607c.122 0 .146-.029.146-.167 0-.093-.035-.18-.07-.197-.041-.012-.076-.098-.076-.19 0-.151-.024-.169-.217-.186-.116-.011-.222.006-.24.029-.017.023-.028.156-.028.295-.006.214.017.254.163.33a.863.863 0 0 0 .322.086zm-7.82 2.649c.25-.018.28-.03.297-.168.024-.185-.24-.515-.403-.515-.064 0-.164.081-.228.186-.222.364-.11.526.333.497zm.566 1.249c.135-.133.082-.353-.146-.561-.21-.197-.427-.202-.55-.017-.046.069-.221.202-.385.289-.158.087-.28.19-.269.225.012.04.164.075.368.081.187.006.468.023.614.047.21.028.286.017.368-.064zm-.152 1.59c-.023-.231-.14-.266-.438-.133-.105.046-.193.093-.193.104 0 .012.123.093.275.174.31.173.386.144.356-.145zm.421 1.538a.558.558 0 0 0-.082-.161c-.093-.145-.035-.37.111-.423.106-.04.117-.231.018-.295-.076-.04-.69-.063-.807-.028-.1.034-.064.161.094.306.123.11.14.173.11.324-.028.168-.017.196.118.249.163.063.438.08.438.028zm12.982 2.048c.152-.174.274-.342.263-.37-.018-.064-.228-.087-.445-.047-.198.035-.274.122-.157.168.14.052.122.144-.059.289l-.158.121.14.076c.123.063.153.052.416-.237zm.602.237c.192 0 .385-.122.385-.237 0-.03.059-.053.135-.053.14 0 .386-.144.333-.19-.018-.018-.199-.047-.41-.07-.35-.034-.39-.029-.508.099-.228.242-.198.45.065.45zm-6.418 2.839c.076-.081.76-.202 1.105-.202.175.005.374.046.496.115.152.075.328.104.66.11.48 0 .585-.052.556-.289-.017-.093-.052-.11-.216-.098a.521.521 0 0 1-.292-.064c-.053-.046-.222-.098-.374-.121-.427-.052-1.105-.388-1.462-.723-.175-.162-.368-.295-.432-.295-.158 0-.269-.139-.222-.283.023-.076-.006-.157-.082-.232-.105-.104-.193-.121-.631-.121-.287 0-.544.023-.579.046-.1.064-.199.278-.199.44 0 .208.222.346.433.266.087-.03.199-.058.245-.058.135 0 .094.214-.07.312-.105.075-.14.139-.128.254.017.157.052.174.531.272.094.018.158.064.14.104-.034.104-.479.116-.695.018-.105-.047-.397-.099-.643-.116-.403-.035-.45-.029-.479.07-.058.179.023.3.199.3.087 0 .274.04.415.093.14.046.49.092.771.104.292.011.544.046.579.08.082.082.292.093.374.018zm-4.267-1.752c.018-.023-.123-.116-.304-.203-.356-.162-.859-.242-.917-.15-.053.081.116.295.304.388.169.092.859.063.917-.035zm2.537.387c0-.318-.135-.405-.316-.208-.123.133-.082.33.082.382.158.046.234-.012.234-.174zm-1.818.694c.187-.058.164-.306-.035-.381a.552.552 0 0 1-.234-.168c-.128-.185-.286-.243-.368-.139-.117.133.012.359.216.382.105.011.164.052.164.115 0 .15.117.237.257.191zm4.413 1.36c.134 0 .146-.018.117-.169l-.035-.167.31.011c.286.006.315-.005.333-.127.035-.225-.082-.3-.48-.295-.192 0-.45.03-.56.064a.924.924 0 0 0-.281.121.867.867 0 0 1-.28.093c-.2.034-.2.04-.112.162a.302.302 0 0 0 .257.133c.094 0 .263.04.374.086.117.047.281.087.357.087zm1.216.138c.473-.04.567-.104.456-.318-.065-.116-.176-.127-.556-.052-.356.075-.555.162-.555.254 0 .128.17.156.655.116z" fill="#0a84ff" fill-rule="nonzero"/>
</svg>
