<svg width="14" height="18" viewBox="0 0 14 18" fill="none" xmlns="http://www.w3.org/2000/svg">
<path d="M7 17.0039C7.57129 17.0039 7.97559 16.5996 7.97559 16.0195V5.16504L7.90527 3.2666L10.1816 5.80664L12.1855 7.79297C12.3613 7.96875 12.6074 8.08301 12.8799 8.08301C13.416 8.08301 13.8203 7.67871 13.8203 7.125C13.8203 6.87012 13.7236 6.63281 13.5127 6.42188L7.7207 0.621094C7.52734 0.418945 7.26367 0.313477 7 0.313477C6.72754 0.313477 6.46387 0.418945 6.27051 0.621094L0.487305 6.42188C0.276367 6.63281 0.179688 6.87012 0.179688 7.125C0.179688 7.67871 0.575195 8.08301 1.11133 8.08301C1.39258 8.08301 1.63867 7.96875 1.81445 7.79297L3.80957 5.80664L6.09473 3.25781L6.01562 5.16504V16.0195C6.01562 16.5996 6.41992 17.0039 7 17.0039Z" fill="rgba(10, 132, 255, 0.5)"/>
</svg>
