<svg width="18" height="22" viewBox="0 0 18 22" fill="none" xmlns="http://www.w3.org/2000/svg">
<path d="M0.711914 4.84473C0.298828 5.24023 0.307617 5.85547 0.711914 6.24219L5.24707 10.6719C5.42285 10.8477 5.69531 10.9619 5.93262 10.9619C6.48633 10.9619 6.86426 10.5752 6.86426 10.0303C6.86426 9.7666 6.77637 9.55566 6.5918 9.37988L4.71094 7.56934L3.375 6.40918L5.23828 6.47949H16.6465C17.1914 6.47949 17.5869 6.08398 17.5869 5.53906C17.5869 4.99414 17.1914 4.60742 16.6465 4.60742H5.23828L3.375 4.66895L4.71094 3.51758L6.5918 1.70703C6.77637 1.53125 6.86426 1.31152 6.86426 1.04785C6.86426 0.511719 6.48633 0.125 5.93262 0.125C5.69531 0.125 5.42285 0.239258 5.24707 0.415039L0.711914 4.84473ZM17.2793 16.4814C17.6924 16.0859 17.6836 15.4707 17.2793 15.084L12.7529 10.6543C12.5684 10.4785 12.2959 10.3643 12.0586 10.3643C11.5137 10.3643 11.1357 10.751 11.1357 11.2959C11.1357 11.5508 11.2236 11.7705 11.3994 11.9463L13.2803 13.7568L14.6162 14.9082L12.7529 14.8467H1.34473C0.808594 14.8467 0.404297 15.2422 0.404297 15.7871C0.404297 16.3232 0.808594 16.7188 1.34473 16.7188H12.7529L14.6162 16.6572L13.2803 17.8086L11.3994 19.6191C11.2236 19.7949 11.1357 20.0146 11.1357 20.2695C11.1357 20.8145 11.5137 21.2012 12.0586 21.2012C12.2959 21.2012 12.5684 21.0869 12.7529 20.9111L17.2793 16.4814Z" fill="rgba(10, 132, 255, 0.5)"/>
</svg>
