<svg width="102" height="101" viewBox="0 0 102 101" xmlns="http://www.w3.org/2000/svg">
    <defs>
        <clipPath id="me0f9v8a5a">
            <path d="M390 0v844H0V0h390z"/>
        </clipPath>
        <clipPath id="3yexc2jcrb">
            <path d="M49.975 0c6.853 0 13.299 1.298 19.338 3.893 6.039 2.596 11.357 6.2 15.954 10.814 4.597 4.614 8.21 9.933 10.84 15.955 2.63 6.022 3.944 12.46 3.944 19.313 0 6.853-1.306 13.299-3.919 19.338-2.612 6.039-6.225 11.357-10.84 15.954-4.613 4.597-9.932 8.202-15.954 10.814C63.316 98.694 56.878 100 50.025 100c-6.853 0-13.299-1.306-19.338-3.919-6.039-2.612-11.357-6.217-15.954-10.814-4.597-4.597-8.202-9.915-10.814-15.954C1.306 63.274 0 56.828 0 49.975c0-6.854 1.306-13.291 3.919-19.313 2.612-6.022 6.217-11.34 10.814-15.955 4.597-4.614 9.915-8.218 15.954-10.814C36.726 1.298 43.155 0 49.975 0zm0 10.483c-5.463 0-10.577 1.018-15.344 3.054-4.767 2.036-8.957 4.86-12.57 8.473-3.613 3.613-6.438 7.812-8.473 12.596-2.036 4.783-3.054 9.906-3.054 15.369 0 5.462 1.018 10.585 3.054 15.369 2.035 4.783 4.86 8.982 8.473 12.595 3.613 3.613 7.812 6.438 12.595 8.473 4.784 2.036 9.907 3.054 15.37 3.054 5.496 0 10.636-1.018 15.42-3.054 4.783-2.035 8.973-4.86 12.57-8.473 3.596-3.613 6.42-7.812 8.473-12.595 2.052-4.784 3.061-9.907 3.028-15.37 0-5.462-1.027-10.585-3.08-15.368-2.052-4.784-4.885-8.983-8.498-12.596-3.613-3.613-7.803-6.437-12.57-8.473-4.767-2.036-9.898-3.054-15.394-3.054zm17.251 19.135c1.188 0 2.248.39 3.181 1.17.933.781 1.4 1.782 1.4 3.003 0 .577-.12 1.145-.357 1.705a11.86 11.86 0 0 1-.865 1.654L49.262 70.33c-1.086 1.697-2.544 2.545-4.377 2.545-.95 0-1.79-.203-2.519-.61-.729-.407-1.433-1.035-2.112-1.883L29.06 56.794c-.883-1.12-1.324-2.24-1.324-3.359 0-1.255.424-2.315 1.273-3.18.848-.866 1.9-1.298 3.155-1.298.746 0 1.425.152 2.035.458.611.305 1.205.831 1.782 1.577l8.702 10.993 18.626-29.822c1.052-1.697 2.358-2.545 3.918-2.545z"/>
        </clipPath>
    </defs>
    <g clip-path="url(#me0f9v8a5a)" transform="translate(-145 -170)">
        <g clip-path="url(#3yexc2jcrb)" transform="translate(145.993 170.553)">
            <path fill="#0A83FF" d="M0 0h100.05v100H0V0z"/>
        </g>
    </g>
</svg>
