<svg width="26" height="16" viewBox="0 0 26 16" fill="none" xmlns="http://www.w3.org/2000/svg">
<path d="M5.46777 10.8623H6.10938C6.03906 10.3086 5.99512 9.71094 6.08301 9.19238H5.57324C3.48145 9.19238 1.99609 7.72461 1.99609 5.61523C1.99609 3.52344 3.48145 2.03809 5.57324 2.03809H13.334C15.4258 2.03809 16.9111 3.52344 16.9111 5.61523C16.9111 7.72461 15.4258 9.19238 13.334 9.19238H10.6445C10.2227 9.47363 10.2578 10.5283 10.8027 10.8623H13.4395C16.4893 10.8623 18.6689 8.70898 18.6689 5.61523C18.6689 2.53027 16.4893 0.376953 13.4395 0.376953H5.46777C2.41797 0.376953 0.238281 2.53027 0.238281 5.61523C0.238281 8.70898 2.41797 10.8623 5.46777 10.8623ZM12.5518 15.0195H20.5146C23.5732 15.0195 25.7529 12.8662 25.7529 9.78125C25.7529 6.6875 23.5732 4.53418 20.5146 4.53418H19.8818C19.9521 5.08789 19.9961 5.68555 19.9082 6.2041H20.418C22.5098 6.2041 23.9951 7.67188 23.9951 9.78125C23.9951 11.873 22.5098 13.3584 20.418 13.3584H12.6572C10.5654 13.3584 9.08008 11.873 9.08008 9.78125C9.08008 7.67188 10.5654 6.2041 12.6572 6.2041H15.3467C15.7686 5.92285 15.7334 4.86816 15.1885 4.53418H12.5518C9.49316 4.53418 7.32227 6.6875 7.32227 9.78125C7.32227 12.8662 9.49316 15.0195 12.5518 15.0195Z" fill="rgb(232, 231, 232)"/>
</svg>
