<svg width="16" height="15" viewBox="0 0 16 15" fill="none" xmlns="http://www.w3.org/2000/svg">
<path d="M1.18849 13.0508C0.819345 13.4199 0.801767 14.0791 1.19728 14.4658C1.58399 14.8525 2.24317 14.8438 2.61231 14.4746L7.99122 9.08692L13.3789 14.4746C13.7568 14.8525 14.4072 14.8525 14.794 14.4658C15.1719 14.0703 15.1807 13.4287 14.794 13.0508L9.41505 7.6631L14.794 2.28419C15.1807 1.90626 15.1807 1.25587 14.794 0.86915C14.3984 0.49122 13.7568 0.482431 13.3789 0.860361L7.99122 6.24806L2.61231 0.860361C2.24317 0.49122 1.5752 0.473642 1.19728 0.86915C0.810556 1.25587 0.819345 1.91505 1.18849 2.28419L6.57618 7.6631L1.18849 13.0508Z" fill="#0a84ff"/>
</svg>
