<svg width="20" height="20" viewBox="0 0 20 20" fill="none" xmlns="http://www.w3.org/2000/svg">
<path d="M9.2002 19.0059H10.8086C11.3359 19.0059 11.7314 18.6895 11.8457 18.1709L12.2852 16.3164C12.584 16.2109 12.8652 16.0967 13.1289 15.9736L14.7549 16.9756C15.1855 17.248 15.7041 17.2041 16.0645 16.8438L17.1982 15.71C17.5586 15.3496 17.6113 14.8135 17.3213 14.374L16.3281 12.7656C16.4512 12.502 16.5654 12.2207 16.6533 11.9482L18.5254 11.5088C19.0439 11.3945 19.3516 10.999 19.3516 10.4717V8.88965C19.3516 8.37109 19.0439 7.9668 18.5254 7.85254L16.6709 7.4043C16.5742 7.09668 16.4512 6.82422 16.3457 6.58691L17.3389 4.94336C17.6201 4.49512 17.585 3.99414 17.207 3.625L16.0645 2.49121C15.6953 2.15723 15.2295 2.0957 14.7812 2.3418L13.1289 3.36133C12.874 3.23828 12.5928 3.12402 12.2939 3.01855L11.8457 1.1377C11.7314 0.619141 11.3359 0.302734 10.8086 0.302734H9.2002C8.66406 0.302734 8.26855 0.619141 8.1543 1.1377L7.71484 3.00977C7.41602 3.10645 7.12598 3.2207 6.8623 3.35254L5.21875 2.3418C4.77051 2.0957 4.31348 2.14844 3.93555 2.49121L2.79297 3.625C2.41504 3.99414 2.37988 4.49512 2.66113 4.94336L3.6543 6.58691C3.54883 6.82422 3.43457 7.09668 3.3291 7.4043L1.47461 7.85254C0.956055 7.9668 0.648438 8.37109 0.648438 8.88965V10.4717C0.648438 10.999 0.956055 11.3945 1.47461 11.5088L3.34668 11.9482C3.43457 12.2207 3.54883 12.502 3.67188 12.7656L2.67871 14.374C2.38867 14.8135 2.44141 15.3496 2.81055 15.71L3.93555 16.8438C4.2959 17.2041 4.81445 17.248 5.25391 16.9756L6.87109 15.9736C7.13477 16.0967 7.41602 16.2109 7.71484 16.3164L8.1543 18.1709C8.26855 18.6895 8.66406 19.0059 9.2002 19.0059ZM10 12.7305C8.3125 12.7305 6.93262 11.3418 6.93262 9.64551C6.93262 7.9668 8.3125 6.58691 10 6.58691C11.6963 6.58691 13.0762 7.9668 13.0762 9.64551C13.0762 11.3418 11.6963 12.7305 10 12.7305Z" fill="#0a84ff"/>
</svg>
