<svg width="24" height="24" xmlns="http://www.w3.org/2000/svg">
  <path d="m18.7049,8.5184l-1.25228,-2.26069l2.42729,0.00085c0.06383,0 0.13942,0.04351 0.17554,0.10237l0.47202,0.79167l0.81638,1.36495l-2.63894,0l0,0.00085zm-4.48839,13.68871c-0.05879,0.10664 -0.13438,0.10664 -0.15958,0.10664l-2.48188,0l3.85511,-7.03203a0.37123,0.37707 0 0 0 -0.32168,-0.56048l-6.57216,0.00853l-1.30687,-2.29823l9.5773,0l0.01512,-0.00256a0.36955,0.37536 0 0 0 0.13438,-0.03327c0.07139,-0.03242 0.13438,-0.08531 0.17554,-0.16209l1.57732,-2.96193l2.60535,0l-7.0971,12.93543l-0.00084,0zm-3.28398,-0.26787c-0.08399,-0.13991 -0.19318,-0.32162 -0.31076,-0.52039a509.96617,517.98007 0 0 0 -0.96756,-1.61746c-0.01932,-0.03156 -0.02856,-0.1092 0.01176,-0.18256l2.26351,-4.14005l2.54824,-0.00341l-3.54435,6.46387l-0.00084,0zm-4.34477,-4.40025l-1.26656,-2.28629l1.27664,-2.4296l1.28084,2.25216l-1.29092,2.46373zm-1.69994,0.35574l-1.38078,0a0.22509,0.22863 0 0 1 -0.1747,-0.10237l-0.41155,-0.691l-0.87685,-1.46561l2.6381,0l1.25228,2.26069l-1.04735,0l0.00084,-0.00171zm4.28261,-15.94769c0.05963,-0.10749 0.13606,-0.10749 0.16042,-0.10749l2.4928,0l-3.86687,7.03203l-0.0084,0.01791a0.39475,0.40095 0 0 0 -0.0336,0.10578a0.32924,0.33441 0 0 0 -0.00336,0.04265l-0.00168,0.01791l0.00168,0.0145a0.29984,0.30455 0 0 0 0.01008,0.07422c0.00252,0.01194 0.00672,0.02389 0.01008,0.03498l0.01344,0.03412a0.37627,0.38218 0 0 0 0.0168,0.03156l0.01848,0.03071a0.32756,0.33271 0 0 0 0.02352,0.02815l0.02436,0.02645c0.0084,0.00853 0.0168,0.01536 0.02688,0.02218c0.01008,0.00853 0.02016,0.01621 0.03192,0.02303l0.01176,0.00853c0.0042,0.00256 0.0084,0.00341 0.01344,0.00512a0.36955,0.37536 0 0 0 0.06047,0.02559l0.02268,0.00682a0.35359,0.35915 0 0 0 0.08315,0.01024l0.16714,0l6.4067,-0.00853c0.16966,0.29944 0.48714,0.86248 0.7559,1.34191l0.51317,0.91281l-9.53362,0l-0.0126,0.00085a0.36787,0.37365 0 0 0 -0.32,0.19792l-1.579,3.00459l-2.60199,0l7.09626,-12.93457zm3.28986,0.27555l0.23181,0.38645c0.40651,0.68162 0.98016,1.64305 1.04147,1.74287c0.01932,0.03156 0.02772,0.1092 -0.0126,0.18256l-2.26267,4.14005l-2.5474,0.00341l3.54939,-6.45534zm4.33889,4.38916l1.26824,2.28629l-1.2926,2.42619l-0.52493,-0.93328c-0.35443,-0.63129 -0.61312,-1.09025 -0.75926,-1.34788l1.30855,-2.43131z"/>
</svg>
