<svg width="128" height="128" viewBox="0 0 128 128" xmlns="http://www.w3.org/2000/svg">
    <defs>
        <clipPath id="r5hvij3dba">
            <path d="M390 0v844H0V0h390z"/>
        </clipPath>
        <clipPath id="ka7kmdidib">
            <path d="M94 0c18.778 0 34 15.222 34 34v60c0 18.778-15.222 34-34 34H34c-18.778 0-34-15.222-34-34V34C0 15.222 15.222 0 34 0h60z"/>
        </clipPath>
        <clipPath id="u8zrpu6enc">
            <path d="M128 0v128H0V0h128z"/>
        </clipPath>
        <clipPath id="wp5pmg0k4d">
            <path d="M46.236 0a46.617 46.617 0 0 1 26.006 7.878c-3.68 6.081-10.268 10.133-17.775 10.133 11.264.01 20.442 9.113 20.863 20.502l.012.795.018-.795c.272-7.375 4.216-13.79 10.02-17.4a46.61 46.61 0 0 1 7.69 25.722c0 23.197-16.864 42.456-39.002 46.183a6.002 6.002 0 0 0-.159-8.322L39.685 70.47a6.054 6.054 0 0 0-.615-.537l2.47-2.47a6 6 0 0 0 0-8.485l-6.744-6.744a6 6 0 0 0-8.485 0l-2.398 2.398a6.005 6.005 0 0 0-.987-1.298L8.701 39.11a6 6 0 0 0-8.485 0L0 39.324C3.594 17.028 22.926 0 46.236 0z"/>
        </clipPath>
        <clipPath id="8h2yjt8sfe">
            <path d="m49.071 49.48 5.858 5.86-3.661 3.661a3.277 3.277 0 0 1-4.634 0l-3.542-3.542 5.979-5.98zm-6.061-6.062 5.656 5.656-5.978 5.981-5.658-5.657 5.98-5.98zm12.45-.326L59 46.634a3.277 3.277 0 0 1 0 4.634l-3.66 3.66-5.858-5.86 5.976-5.976zm-18.715-5.935 5.859 5.856-5.978 5.981-3.542-3.542a3.277 3.277 0 0 1 0-4.634l3.66-3.661zm12.653-.127 5.657 5.658-5.977 5.974-5.656-5.656 5.976-5.976zM39.311 14.576l6.074 6.074a3.277 3.277 0 0 1 0 4.634l-20.1 20.101a3.277 3.277 0 0 1-4.635 0l-6.074-6.074a3.277 3.277 0 0 1 0-4.634l20.101-20.101a3.277 3.277 0 0 1 4.634 0zm6.14 18.508 3.543 3.542-5.978 5.974-5.859-5.855 3.66-3.66a3.277 3.277 0 0 1 4.635 0zM16.948 17.355l5.857 5.861-3.66 3.66a3.277 3.277 0 0 1-4.635 0l-3.542-3.541 5.98-5.98zm-6.062-6.061 5.656 5.656-5.978 5.98-5.657-5.656 5.979-5.98zm12.45-.327 3.542 3.542a3.277 3.277 0 0 1 0 4.634l-3.66 3.661-5.858-5.861 5.976-5.976zM4.62 5.032l5.86 5.856-5.978 5.982L.96 13.327a3.277 3.277 0 0 1 0-4.634l3.66-3.66zm12.654-.126 5.657 5.657-5.978 5.974-5.656-5.656 5.977-5.975zM13.327.96l3.542 3.542-5.977 5.974-5.86-5.856L8.693.96a3.277 3.277 0 0 1 4.634 0z"/>
        </clipPath>
        <clipPath id="fpwmy4g3pf">
            <path d="M11.029 0c.001 6.048 4.717 11 10.618 11.228l.411.006-.411.01c-5.76.221-10.392 4.946-10.609 10.823l-.01.42-.006-.42C10.8 16.05 5.951 11.24 0 11.236c5.946 0 10.8-4.811 11.022-10.832L11.03 0z"/>
        </clipPath>
        <clipPath id="btb83gphbg">
            <path d="M5.747 0c.001 3.152 2.459 5.733 5.534 5.851l.214.004-.214.004c-3.002.116-5.415 2.578-5.529 5.64l-.005.22-.003-.22C5.628 8.365 3.101 5.859 0 5.856c3.098 0 5.628-2.507 5.744-5.644L5.747 0z"/>
        </clipPath>
    </defs>
    <g clip-path="url(#r5hvij3dba)" transform="translate(-131 -195)">
        <g clip-path="url(#ka7kmdidib)" transform="translate(131 195)">
            <path fill="#D7D7D7" d="M0 0h128v128H0V0z"/>
            <g clip-path="url(#u8zrpu6enc)">
                <path fill="#E7F6F9" d="M0 0h128v128H0V0z"/>
            </g>
            <g clip-path="url(#wp5pmg0k4d)" transform="translate(17.686 17.087)">
                <path fill="#0A83FF" d="M0 0h93.07v93.018H0V0z"/>
            </g>
            <g clip-path="url(#8h2yjt8sfe)" transform="translate(11.184 57.476)">
                <path fill="#0A83FF" d="M0 0h59.961v59.961H0V0z"/>
            </g>
            <g clip-path="url(#fpwmy4g3pf)" transform="translate(82.085 24.132)">
                <path fill="#0A83FF" d="M0 0h22.058v22.487H0V0z"/>
            </g>
            <g clip-path="url(#btb83gphbg)" transform="translate(97.308 19.16)">
                <path fill="#0A83FF" d="M0 0h11.495v11.719H0V0z"/>
            </g>
        </g>
    </g>
</svg>
