<svg width="390" height="191" viewBox="0 0 390 191" xmlns="http://www.w3.org/2000/svg">
    <defs>
        <clipPath id="8szlligdqa">
            <path d="M390 0v844H0V0h390z"/>
        </clipPath>
        <clipPath id="rrgb652nxb">
            <path d="M49 0a5 5 0 0 1 5 5v22a5 5 0 0 1-5 5H5a5 5 0 0 1-5-5V5a5 5 0 0 1 5-5h44z"/>
        </clipPath>
        <clipPath id="ihw48wwhbc">
            <path d="M1.592 0v4.849h.08c.072-.241.19-.46.357-.656.167-.196.37-.366.609-.508.239-.143.508-.252.808-.328.3-.076.617-.114.95-.114.727 0 1.355.161 1.885.483.53.322.938.779 1.226 1.37.287.59.43 1.294.43 2.11V8.8c0 .817-.145 1.522-.435 2.116a3.195 3.195 0 0 1-1.242 1.374c-.538.322-1.175.484-1.911.484-.434 0-.832-.06-1.194-.182a2.78 2.78 0 0 1-.942-.522 2.251 2.251 0 0 1-.604-.809h-.08v1.37H0V0h1.592zM4 4.606c-.491 0-.917.11-1.28.332a2.17 2.17 0 0 0-.835.943c-.194.408-.292.893-.292 1.455v1.527c0 .493.105.931.316 1.316.21.384.5.686.867.904.367.219.788.328 1.263.328.486 0 .9-.113 1.244-.34.344-.226.605-.555.784-.987.178-.432.268-.953.268-1.562v-.98c0-.62-.092-1.15-.276-1.586-.184-.438-.45-.772-.795-1.003-.347-.231-.768-.347-1.264-.347z"/>
        </clipPath>
        <clipPath id="0txwf30m9d">
            <path d="M4 0c.769 0 1.453.16 2.054.481.6.321 1.073.787 1.418 1.396.346.61.519 1.346.519 2.207v1.364c0 .87-.173 1.611-.519 2.222a3.507 3.507 0 0 1-1.418 1.398c-.6.321-1.285.482-2.053.482-.78 0-1.47-.16-2.07-.478A3.459 3.459 0 0 1 .514 7.678C.172 7.068 0 6.325 0 5.45V4.087c0-.835.173-1.558.519-2.168A3.64 3.64 0 0 1 1.942.502C2.545.167 3.232 0 4.001 0zm.008 1.351c-.497 0-.925.123-1.284.367A2.39 2.39 0 0 0 1.89 2.73c-.196.43-.294.926-.294 1.491v1.117c0 .572.094 1.073.281 1.502.188.43.461.764.821 1.002.36.238.796.357 1.31.357.513 0 .947-.119 1.3-.357.355-.237.624-.571.81-1 .184-.43.276-.932.276-1.504V4.22c0-.565-.095-1.062-.286-1.492a2.345 2.345 0 0 0-.82-1.01c-.357-.244-.784-.367-1.28-.367z"/>
        </clipPath>
        <clipPath id="muv9n0chpe">
            <path d="m1.898 0 2.109 3.417h.069L6.249 0h1.809L4.93 4.53c.014.025.1.153.255.382.155.23.348.52.58.87.232.352.48.72.743 1.105.264.386.511.754.743 1.105.232.35.426.641.58.87.156.23.24.357.255.382H6.208L4.043 5.817h-.061L1.809 9.244H.035l3.078-4.571c-.015-.026-.099-.153-.251-.382l-.202-.303-.371-.56c-.23-.345-.474-.709-.732-1.092-.259-.382-.503-.747-.732-1.092A919.861 919.861 0 0 0 0 0h1.898z"/>
        </clipPath>
        <clipPath id="1j839budcf">
            <path d="M79 0a5 5 0 0 1 5 5v22a5 5 0 0 1-5 5H5a5 5 0 0 1-5-5V5a5 5 0 0 1 5-5h74z"/>
        </clipPath>
        <clipPath id="0nql18az8g">
            <path d="M4.38 0c.727 0 1.353.161 1.88.483.528.322.936.78 1.223 1.373.287.594.43 1.296.43 2.108v1.592c0 .817-.144 1.522-.434 2.116a3.195 3.195 0 0 1-1.243 1.374c-.538.322-1.175.484-1.91.484a3.59 3.59 0 0 1-1.157-.177 2.584 2.584 0 0 1-.901-.514 2.39 2.39 0 0 1-.595-.822h-.08v4.437H0V.134h1.529v1.472h.08c.094-.247.228-.47.403-.668.175-.2.383-.369.625-.509.241-.14.509-.247.803-.32C3.734.036 4.048 0 4.38 0zM3.96 1.363c-.486 0-.905.108-1.26.324a2.128 2.128 0 0 0-.819.927c-.192.403-.288.883-.288 1.44V5.66c0 .492.101.928.304 1.307.203.38.486.674.847.885.362.21.78.316 1.256.316.49 0 .908-.114 1.252-.343.343-.23.605-.56.787-.992.181-.432.272-.955.272-1.57v-.98c0-.62-.09-1.148-.272-1.582-.182-.435-.448-.766-.8-.995-.35-.228-.777-.343-1.28-.343z"/>
        </clipPath>
        <clipPath id="60pcshp64h">
            <path d="M3.617 0c.666 0 1.246.108 1.741.324.495.217.88.518 1.155.904s.412.84.412 1.362h-1.47a1.282 1.282 0 0 0-.24-.636 1.567 1.567 0 0 0-.623-.504c-.273-.132-.617-.198-1.033-.198-.54 0-.982.12-1.329.361-.346.24-.52.584-.52 1.03 0 .277.07.499.209.666.139.167.32.298.546.394.225.097.472.172.742.226.27.054.535.103.796.15.58.098 1.108.233 1.586.406.477.173.86.429 1.146.766.287.338.43.807.43 1.409 0 .615-.153 1.138-.461 1.57-.308.43-.739.759-1.293.983-.554.225-1.2.337-1.937.337-.686 0-1.29-.1-1.813-.301-.522-.2-.93-.493-1.222-.875C.146 7.99 0 7.524 0 6.972h1.556c.043.273.138.51.284.71.146.199.359.353.639.46.28.108.635.162 1.067.162.487 0 .88-.066 1.182-.2.301-.132.523-.308.664-.527.141-.219.212-.461.212-.727 0-.345-.104-.608-.312-.79-.207-.181-.486-.32-.835-.418-.349-.097-.74-.186-1.172-.267-.57-.12-1.092-.263-1.566-.429-.473-.165-.85-.413-1.132-.743-.282-.33-.423-.797-.423-1.401 0-.656.163-1.19.49-1.602A2.855 2.855 0 0 1 1.932.291 4.823 4.823 0 0 1 3.617 0z"/>
        </clipPath>
        <clipPath id="krpdou5g2i">
            <path d="M1.93 3.946v9.245H.34V3.946h1.59zM1.123 0c.334 0 .608.103.824.308.215.206.323.47.323.792 0 .312-.108.571-.323.777-.215.205-.49.308-.824.308-.319 0-.585-.103-.8-.308A1.028 1.028 0 0 1 0 1.1C0 .777.107.513.322.308.537.103.804 0 1.122 0z"/>
        </clipPath>
        <clipPath id="oxdg4f76hj">
            <path d="M2.997 0v2.32h2.086v1.292H2.997V8.94c0 .545.107.91.323 1.094.215.183.604.275 1.167.275.115 0 .247-.005.397-.016l.334-.026v1.279a5.682 5.682 0 0 1-.484.047 9.06 9.06 0 0 1-.647.029c-.733 0-1.292-.096-1.677-.287a1.522 1.522 0 0 1-.789-.88c-.14-.396-.211-.897-.211-1.502V3.612H0V2.32h1.42V0h1.577z"/>
        </clipPath>
        <clipPath id="99em85lh6k">
            <path d="M4 0c.769 0 1.453.16 2.054.481.6.321 1.073.787 1.418 1.396.346.61.519 1.346.519 2.207v1.364c0 .87-.173 1.611-.519 2.222a3.507 3.507 0 0 1-1.418 1.398c-.6.321-1.285.482-2.053.482-.78 0-1.47-.16-2.07-.478A3.459 3.459 0 0 1 .514 7.678C.172 7.068 0 6.325 0 5.45V4.087c0-.835.173-1.558.519-2.168A3.64 3.64 0 0 1 1.942.502C2.545.167 3.232 0 4.001 0zm.008 1.351c-.497 0-.925.123-1.284.367A2.39 2.39 0 0 0 1.89 2.73c-.196.43-.294.926-.294 1.491v1.117c0 .572.094 1.073.281 1.502.188.43.461.764.821 1.002.36.238.796.357 1.31.357.513 0 .947-.119 1.3-.357.355-.237.624-.571.81-1 .184-.43.276-.932.276-1.504V4.22c0-.565-.095-1.062-.286-1.492a2.345 2.345 0 0 0-.82-1.01c-.357-.244-.784-.367-1.28-.367z"/>
        </clipPath>
        <clipPath id="1om4ljqb2l">
            <path d="M4.464 0c.932 0 1.689.254 2.269.763.58.508.87 1.281.87 2.32v6.31h-1.59v-5.81c0-.486-.081-.89-.242-1.215-.16-.324-.39-.57-.687-.735-.298-.166-.655-.248-1.071-.248-.542 0-.993.126-1.351.38a2.295 2.295 0 0 0-.805 1.026 3.78 3.78 0 0 0-.267 1.453v5.148H0V.148h1.578v1.678h.08a3.3 3.3 0 0 1 .409-.792c.19-.283.477-.526.86-.729C3.312.102 3.824 0 4.465 0z"/>
        </clipPath>
        <clipPath id="i73njevyvm">
            <path d="M3.79 0c.633 0 1.213.1 1.74.297a2.64 2.64 0 0 1 1.263.973c.316.45.473 1.053.473 1.808v6.314H5.74V8.166h-.073c-.15.246-.344.473-.582.682a2.737 2.737 0 0 1-.867.503c-.34.126-.74.189-1.198.189-.894 0-1.62-.258-2.18-.775S0 7.562 0 6.705c0-.81.276-1.466.828-1.966.552-.5 1.359-.75 2.419-.75h2.42v-.917c0-.59-.175-1.027-.524-1.307-.35-.28-.82-.421-1.413-.421-.388 0-.707.047-.956.141a1.4 1.4 0 0 0-.584.386c-.14.163-.24.353-.304.57H.35c.033-.391.134-.737.303-1.04.169-.301.4-.557.691-.766A3.16 3.16 0 0 1 2.4.16 5.53 5.53 0 0 1 3.789 0zm1.876 5.197H3.378c-.624 0-1.072.138-1.346.414-.273.277-.41.623-.41 1.04 0 .534.187.927.561 1.18.374.252.8.378 1.28.378.418 0 .793-.087 1.123-.26.33-.173.593-.409.788-.707.195-.297.292-.634.292-1.01V5.196z"/>
        </clipPath>
        <clipPath id="7iq5ofkhwn">
            <path d="M9.623 0c.948 0 1.693.25 2.234.75.541.501.812 1.213.812 2.137v6.505h-1.59v-6.06c0-.392-.073-.735-.219-1.027a1.584 1.584 0 0 0-.646-.684c-.286-.163-.637-.245-1.055-.245a1.974 1.974 0 0 0-1.767 1.035 2.251 2.251 0 0 0-.271 1.122v5.86H5.548V3.395c0-.405-.08-.758-.238-1.061a1.725 1.725 0 0 0-.675-.706c-.29-.169-.64-.253-1.046-.253-.388 0-.733.09-1.034.27a1.89 1.89 0 0 0-.708.753 2.344 2.344 0 0 0-.257 1.116v5.877H0V.148h1.578v1.47h.08c.076-.22.201-.455.377-.704.175-.249.432-.464.772-.644S3.6 0 4.167 0c.47 0 .878.076 1.226.229.349.152.635.359.86.62.225.261.387.557.485.887h.069c.124-.301.307-.584.55-.848.242-.265.55-.479.925-.642C8.657.082 9.104 0 9.622 0z"/>
        </clipPath>
        <clipPath id="9d5277xgmo">
            <path d="M3.84 0c.75 0 1.412.167 1.986.502a3.548 3.548 0 0 1 1.355 1.415c.329.61.493 1.328.493 2.157v1.113H1.588v.467c0 .715.201 1.318.604 1.81.402.492.987.738 1.754.738.361 0 .68-.051.959-.154.278-.102.504-.237.677-.404.173-.167.286-.345.339-.534h1.631c-.032.247-.129.512-.29.794a3.024 3.024 0 0 1-.682.796 3.552 3.552 0 0 1-1.093.612c-.435.159-.946.238-1.532.238-.825 0-1.533-.166-2.124-.497A3.332 3.332 0 0 1 .472 7.64C.157 7.028 0 6.308 0 5.48V4.074c0-.838.166-1.562.499-2.17A3.536 3.536 0 0 1 1.866.496C2.445.166 3.103 0 3.839 0zm.003 1.339c-.452 0-.847.106-1.185.318-.338.212-.601.508-.789.89-.187.382-.28.83-.28 1.342v.15h4.504v-.15c0-.513-.094-.96-.28-1.342a2.129 2.129 0 0 0-.786-.89c-.338-.212-.732-.318-1.184-.318z"/>
        </clipPath>
        <clipPath id="rf49n2d5mp">
            <path d="M1.59 0v5.986c0 .511.092.914.277 1.21.184.296.427.505.73.628.303.124.639.185 1.008.185.452 0 .858-.099 1.216-.297.359-.197.643-.463.852-.796a2.01 2.01 0 0 0 .315-1.091V0h1.59v9.244H5.999V7.71h-.088a2.36 2.36 0 0 1-.468.764 2.687 2.687 0 0 1-.904.654c-.377.177-.836.265-1.377.265-.617 0-1.163-.1-1.638-.298A2.354 2.354 0 0 1 .405 8.14C.135 7.705 0 7.13 0 6.414V0h1.59z"/>
        </clipPath>
        <clipPath id="r8pkl0bu8q">
            <path d="M4.202 0a4.118 4.118 0 0 1 .581.042v1.446a2.646 2.646 0 0 0-.326-.034 7.442 7.442 0 0 0-.424-.012c-.54 0-.991.099-1.352.296-.36.198-.63.465-.81.8a2.36 2.36 0 0 0-.268 1.13v5.716H0V.14h1.591v1.425h.08a2.65 2.65 0 0 1 .4-.673c.188-.241.455-.45.8-.627C3.218.088 3.662 0 4.203 0z"/>
        </clipPath>
        <clipPath id="62u7bbykpr">
            <path d="M43 0a5 5 0 0 1 5 5v22a5 5 0 0 1-5 5H5a5 5 0 0 1-5-5V5a5 5 0 0 1 5-5h38z"/>
        </clipPath>
        <clipPath id="j29gm53lvs">
            <path d="M7.938 0v12.63H6.41v-1.473h-.08c-.066.235-.184.45-.353.647-.169.196-.378.366-.628.51-.25.142-.527.254-.832.332a3.854 3.854 0 0 1-.967.119c-.718 0-1.343-.159-1.876-.475a3.189 3.189 0 0 1-1.237-1.345C.146 10.365 0 9.684 0 8.902v-1.79c0-.788.15-1.47.45-2.047A3.28 3.28 0 0 1 1.705 3.72c.538-.319 1.166-.478 1.883-.478.435 0 .831.06 1.189.181.357.121.664.295.92.522.257.227.447.496.569.808h.08V0h1.591zm-4.03 4.606c-.479 0-.89.113-1.233.338a2.163 2.163 0 0 0-.793.969c-.186.42-.278.927-.278 1.518v1.13c0 .597.094 1.107.282 1.53.187.425.457.75.809.974.351.225.771.338 1.26.338.484 0 .904-.11 1.26-.33.358-.22.635-.53.834-.933.198-.403.297-.879.297-1.428V7.114c0-.492-.106-.925-.317-1.301a2.334 2.334 0 0 0-.865-.885 2.436 2.436 0 0 0-1.257-.322z"/>
        </clipPath>
        <clipPath id="nfeetvw06t">
            <path d="M3.863 0c.774 0 1.421.139 1.942.417.52.278.916.632 1.186 1.062.27.431.41.879.422 1.344H5.86a1.966 1.966 0 0 0-.237-.61c-.125-.224-.326-.417-.6-.578-.275-.162-.653-.243-1.133-.243-.754 0-1.326.24-1.714.721-.389.481-.583 1.128-.583 1.941v1.472c0 .801.204 1.44.613 1.917.409.477.97.716 1.685.716.457 0 .824-.062 1.1-.185a1.52 1.52 0 0 0 .634-.487c.146-.201.245-.42.299-.653h1.551a2.58 2.58 0 0 1-.42 1.301c-.264.417-.66.757-1.185 1.02-.526.263-1.196.395-2.01.395-.792 0-1.476-.165-2.054-.495A3.363 3.363 0 0 1 .47 7.657C.157 7.054 0 6.34 0 5.515V3.999c0-.81.157-1.513.472-2.112A3.38 3.38 0 0 1 1.812.495C2.39.165 3.073 0 3.862 0z"/>
        </clipPath>
        <clipPath id="lobi5tc7yu">
            <path d="M1.591 0v7.538h.065l3.723-4.152h1.842L3.602 7.398l3.856 5.232H5.56L2.429 8.377l-.838.852v3.4H0V0h1.591z"/>
        </clipPath>
        <clipPath id="k9saa77zev">
            <path d="M7.938 0v12.63H6.41v-1.473h-.08c-.066.235-.184.45-.353.647-.169.196-.378.366-.628.51-.25.142-.527.254-.832.332a3.854 3.854 0 0 1-.967.119c-.718 0-1.343-.159-1.876-.475a3.189 3.189 0 0 1-1.237-1.345C.146 10.365 0 9.684 0 8.902v-1.79c0-.788.15-1.47.45-2.047A3.28 3.28 0 0 1 1.705 3.72c.538-.319 1.166-.478 1.883-.478.435 0 .831.06 1.189.181.357.121.664.295.92.522.257.227.447.496.569.808h.08V0h1.591zm-4.03 4.606c-.479 0-.89.113-1.233.338a2.163 2.163 0 0 0-.793.969c-.186.42-.278.927-.278 1.518v1.13c0 .597.094 1.107.282 1.53.187.425.457.75.809.974.351.225.771.338 1.26.338.484 0 .904-.11 1.26-.33.358-.22.635-.53.834-.933.198-.403.297-.879.297-1.428V7.114c0-.492-.106-.925-.317-1.301a2.334 2.334 0 0 0-.865-.885 2.436 2.436 0 0 0-1.257-.322z"/>
        </clipPath>
        <clipPath id="pqs7gbrl1w">
            <path d="M4.455 0a10.025 10.025 0 0 1 1.057.058v1.277a3.525 3.525 0 0 0-.38-.027c-.181-.006-.33-.01-.447-.01-.545 0-.94.1-1.184.299-.245.198-.367.57-.367 1.118v.798h2.14v1.292h-2.13v7.931H1.556V4.805H0V3.513h1.556V2.59c0-.885.226-1.538.677-1.959C2.684.211 3.425 0 4.455 0z"/>
        </clipPath>
        <clipPath id="pdh3rmstlx">
            <path d="M1.59 0v5.064h.08c.066-.214.2-.465.403-.753.203-.287.503-.538.901-.752.398-.214.917-.321 1.557-.321.894 0 1.635.257 2.224.77.59.514.884 1.29.884 2.328v6.294h-1.59V6.836c0-.485-.085-.892-.253-1.222a1.697 1.697 0 0 0-.711-.743c-.306-.166-.668-.249-1.085-.249-.527 0-.97.127-1.329.38s-.629.596-.81 1.027c-.18.432-.27.916-.27 1.453v5.148H0V0h1.59z"/>
        </clipPath>
        <clipPath id="z2ymwi97vy">
            <path d="m1.76 0 2.274 7.608h.07L6.551 0h1.694L4.902 9.244h-1.65L0 0h1.76z"/>
        </clipPath>
        <clipPath id="9w32b3yftz">
            <path d="M3.79 0c.633 0 1.213.1 1.74.297a2.64 2.64 0 0 1 1.263.973c.316.45.473 1.053.473 1.808v6.314H5.74V8.166h-.073c-.15.246-.344.473-.582.682a2.737 2.737 0 0 1-.867.503c-.34.126-.74.189-1.198.189-.894 0-1.62-.258-2.18-.775S0 7.562 0 6.705c0-.81.276-1.466.828-1.966.552-.5 1.359-.75 2.419-.75h2.42v-.917c0-.59-.175-1.027-.524-1.307-.35-.28-.82-.421-1.413-.421-.388 0-.707.047-.956.141a1.4 1.4 0 0 0-.584.386c-.14.163-.24.353-.304.57H.35c.033-.391.134-.737.303-1.04.169-.301.4-.557.691-.766A3.16 3.16 0 0 1 2.4.16 5.53 5.53 0 0 1 3.789 0zm1.876 5.197H3.378c-.624 0-1.072.138-1.346.414-.273.277-.41.623-.41 1.04 0 .534.187.927.561 1.18.374.252.8.378 1.28.378.418 0 .793-.087 1.123-.26.33-.173.593-.409.788-.707.195-.297.292-.634.292-1.01V5.196z"/>
        </clipPath>
        <clipPath id="m5zcnr9vtA">
            <path d="M80 0a5 5 0 0 1 5 5v22a5 5 0 0 1-5 5H5a5 5 0 0 1-5-5V5a5 5 0 0 1 5-5h75z"/>
        </clipPath>
        <clipPath id="o6e6rmhz4B">
            <path d="M3.443 3.946v9.465c0 .71-.103 1.289-.308 1.734-.205.445-.497.771-.877.978-.38.207-.838.31-1.374.31A5.556 5.556 0 0 1 0 16.357V15.11a3.853 3.853 0 0 0 .572.042c.476 0 .808-.143.997-.428.19-.285.284-.729.284-1.332V3.946h1.59zM2.636 0c.334 0 .609.103.824.308.215.206.323.47.323.792 0 .312-.107.571-.322.777-.216.205-.49.308-.825.308-.318 0-.585-.103-.8-.308a1.028 1.028 0 0 1-.322-.777c0-.323.107-.587.322-.792.214-.205.481-.308.8-.308z"/>
        </clipPath>
        <clipPath id="bvkp9wunsC">
            <path d="M195 0c107.696 0 195 42.757 195 95.5S302.696 191 195 191 0 148.243 0 95.5 87.304 0 195 0z"/>
        </clipPath>
        <radialGradient id="q422rhxiaD" cx="195" cy="95.5" r="158.61" gradientTransform="rotate(180 195 95.5)" gradientUnits="userSpaceOnUse">
            <stop stop-color="rgba(255, 255, 255, 0)" offset="0%"/>
            <stop stop-color="#FFF" offset="100%"/>
        </radialGradient>
    </defs>
    <g clip-path="url(#8szlligdqa)" transform="translate(0 -167)">
        <g clip-path="url(#rrgb652nxb)" transform="translate(47 204)">
            <path fill="#F9F9F9" d="M0 0h54v32H0V0z"/>
        </g>
        <g clip-path="url(#ihw48wwhbc)" transform="translate(60.219 213.37)">
            <path fill="#8D8D92" d="M0 0h7.937v12.773H0V0z"/>
        </g>
        <g clip-path="url(#0txwf30m9d)" transform="translate(70.245 216.603)">
            <path fill="#8D8D92" d="M0 0h7.99v9.55H0V0z"/>
        </g>
        <g clip-path="url(#muv9n0chpe)" transform="translate(79.734 216.756)">
            <path fill="#8D8D92" d="M0 0h8.087v9.244H0V0z"/>
        </g>
        <g clip-path="url(#1j839budcf)" transform="translate(111 204)">
            <path fill="#F9F9F9" d="M0 0h84v32H0V0z"/>
        </g>
        <g clip-path="url(#0nql18az8g)" transform="translate(120.15 216.613)">
            <path fill="#8D8D92" d="M0 0h7.914v12.454H0V0z"/>
        </g>
        <g clip-path="url(#0txwf30m9d)" transform="translate(130.168 216.603)">
            <path fill="#8D8D92" d="M0 0h7.99v9.55H0V0z"/>
        </g>
        <g clip-path="url(#60pcshp64h)" transform="translate(140.087 216.603)">
            <path fill="#8D8D92" d="M0 0h7.166v9.55H0V0z"/>
        </g>
        <g clip-path="url(#krpdou5g2i)" transform="translate(149.588 212.81)">
            <path fill="#8D8D92" d="M0 0h2.27v13.19H0V0z"/>
        </g>
        <g clip-path="url(#oxdg4f76hj)" transform="translate(153.808 214.457)">
            <path fill="#8D8D92" d="M0 0h5.218v11.623H0V0z"/>
        </g>
        <g clip-path="url(#krpdou5g2i)" transform="translate(161.227 212.81)">
            <path fill="#8D8D92" d="M0 0h2.27v13.19H0V0z"/>
        </g>
        <g clip-path="url(#99em85lh6k)" transform="translate(165.914 216.603)">
            <path fill="#8D8D92" d="M0 0h7.99v9.55H0V0z"/>
        </g>
        <g clip-path="url(#1om4ljqb2l)" transform="translate(176.44 216.608)">
            <path fill="#8D8D92" d="M0 0h7.603v9.392H0V0z"/>
        </g>
        <g>
            <g clip-path="url(#1j839budcf)" transform="translate(205 204)">
                <path fill="#F9F9F9" d="M0 0h84v32H0V0z"/>
            </g>
            <g clip-path="url(#i73njevyvm)" transform="translate(212.69 216.608)">
                <path fill="#8D8D92" d="M0 0h7.266v9.54H0V0z"/>
            </g>
            <g clip-path="url(#7iq5ofkhwn)" transform="translate(222.893 216.608)">
                <path fill="#8D8D92" d="M0 0h12.669v9.392H0V0z"/>
            </g>
            <g clip-path="url(#i73njevyvm)" transform="translate(237.98 216.608)">
                <path fill="#8D8D92" d="M0 0h7.266v9.54H0V0z"/>
            </g>
            <g clip-path="url(#oxdg4f76hj)" transform="translate(247.266 214.457)">
                <path fill="#8D8D92" d="M0 0h5.218v11.623H0V0z"/>
            </g>
            <g clip-path="url(#9d5277xgmo)" transform="translate(254.35 216.603)">
                <path fill="#8D8D92" d="M0 0h7.674v9.55H0V0z"/>
            </g>
            <g clip-path="url(#rf49n2d5mp)" transform="translate(264.444 216.756)">
                <path fill="#8D8D92" d="M0 0h7.578v9.392H0V0z"/>
            </g>
            <g clip-path="url(#r8pkl0bu8q)" transform="translate(275.15 216.616)">
                <path fill="#8D8D92" d="M0 0h4.783v9.384H0V0z"/>
            </g>
        </g>
        <g>
            <g clip-path="url(#62u7bbykpr)" transform="translate(298 204)">
                <path fill="#F9F9F9" d="M0 0h48v32H0V0z"/>
            </g>
            <g clip-path="url(#j29gm53lvs)" transform="translate(305.298 213.37)">
                <path fill="#8D8D92" d="M0 0h7.938v12.765H0V0z"/>
            </g>
            <g clip-path="url(#krpdou5g2i)" transform="translate(316.133 212.81)">
                <path fill="#8D8D92" d="M0 0h2.27v13.19H0V0z"/>
            </g>
            <g clip-path="url(#nfeetvw06t)" transform="translate(320.82 216.603)">
                <path fill="#8D8D92" d="M0 0h7.476v9.55H0V0z"/>
            </g>
            <g clip-path="url(#9d5277xgmo)" transform="translate(330.22 216.603)">
                <path fill="#8D8D92" d="M0 0h7.674v9.55H0V0z"/>
            </g>
        </g>
        <g>
            <g clip-path="url(#rrgb652nxb)" transform="translate(47 284)">
                <path fill="#F9F9F9" d="M0 0h54v32H0V0z"/>
            </g>
            <g clip-path="url(#lobi5tc7yu)" transform="translate(62.697 293.37)">
                <path fill="#8D8D92" d="M0 0h7.458v12.63H0V0z"/>
            </g>
            <g clip-path="url(#krpdou5g2i)" transform="translate(71.81 292.81)">
                <path fill="#8D8D92" d="M0 0h2.27v13.19H0V0z"/>
            </g>
            <g clip-path="url(#k9saa77zev)" transform="translate(76.5 293.37)">
                <path fill="#8D8D92" d="M0 0h7.938v12.765H0V0z"/>
            </g>
            <g clip-path="url(#1j839budcf)" transform="translate(111 284)">
                <path fill="#F9F9F9" d="M0 0h84v32H0V0z"/>
            </g>
            <g clip-path="url(#pqs7gbrl1w)" transform="translate(124.388 293.264)">
                <path fill="#8D8D92" d="M0 0h5.512v12.736H0V0z"/>
            </g>
            <g clip-path="url(#krpdou5g2i)" transform="translate(131.94 292.81)">
                <path fill="#8D8D92" d="M0 0h2.27v13.19H0V0z"/>
            </g>
            <g clip-path="url(#oxdg4f76hj)" transform="translate(136.16 294.457)">
                <path fill="#8D8D92" d="M0 0h5.218v11.623H0V0z"/>
            </g>
            <g clip-path="url(#1om4ljqb2l)" transform="translate(143.696 296.608)">
                <path fill="#8D8D92" d="M0 0h7.603v9.392H0V0z"/>
            </g>
            <g clip-path="url(#9d5277xgmo)" transform="translate(153.79 296.603)">
                <path fill="#8D8D92" d="M0 0h7.674v9.55H0V0z"/>
            </g>
            <g clip-path="url(#60pcshp64h)" transform="translate(163.344 296.603)">
                <path fill="#8D8D92" d="M0 0h7.166v9.55H0V0z"/>
            </g>
            <g clip-path="url(#60pcshp64h)" transform="translate(172.356 296.603)">
                <path fill="#8D8D92" d="M0 0h7.166v9.55H0V0z"/>
            </g>
            <g>
                <g clip-path="url(#1j839budcf)" transform="translate(205 284)">
                    <path fill="#F9F9F9" d="M0 0h84v32H0V0z"/>
                </g>
                <g clip-path="url(#pdh3rmstlx)" transform="translate(216.745 293.37)">
                    <path fill="#8D8D92" d="M0 0h7.639v12.63H0V0z"/>
                </g>
                <g clip-path="url(#i73njevyvm)" transform="translate(226.797 296.608)">
                    <path fill="#8D8D92" d="M0 0h7.266v9.54H0V0z"/>
                </g>
                <g clip-path="url(#r8pkl0bu8q)" transform="translate(237.143 296.616)">
                    <path fill="#8D8D92" d="M0 0h4.783v9.384H0V0z"/>
                </g>
                <g clip-path="url(#z2ymwi97vy)" transform="translate(243.052 296.756)">
                    <path fill="#8D8D92" d="M0 0h8.246v9.244H0V0z"/>
                </g>
                <g clip-path="url(#9d5277xgmo)" transform="translate(252.618 296.603)">
                    <path fill="#8D8D92" d="M0 0h7.674v9.55H0V0z"/>
                </g>
                <g clip-path="url(#60pcshp64h)" transform="translate(262.173 296.603)">
                    <path fill="#8D8D92" d="M0 0h7.166v9.55H0V0z"/>
                </g>
                <g clip-path="url(#oxdg4f76hj)" transform="translate(270.873 294.457)">
                    <path fill="#8D8D92" d="M0 0h5.218v11.623H0V0z"/>
                </g>
            </g>
            <g>
                <g clip-path="url(#62u7bbykpr)" transform="translate(298 284)">
                    <path fill="#F9F9F9" d="M0 0h48v32H0V0z"/>
                </g>
                <g clip-path="url(#oxdg4f76hj)" transform="translate(305.394 294.457)">
                    <path fill="#8D8D92" d="M0 0h5.218v11.623H0V0z"/>
                </g>
                <g clip-path="url(#pdh3rmstlx)" transform="translate(312.958 293.37)">
                    <path fill="#8D8D92" d="M0 0h7.639v12.63H0V0z"/>
                </g>
                <g clip-path="url(#9w32b3yftz)" transform="translate(323.01 296.608)">
                    <path fill="#8D8D92" d="M0 0h7.266v9.54H0V0z"/>
                </g>
                <g clip-path="url(#oxdg4f76hj)" transform="translate(332.296 294.457)">
                    <path fill="#8D8D92" d="M0 0h5.218v11.623H0V0z"/>
                </g>
            </g>
        </g>
        <g>
            <g clip-path="url(#m5zcnr9vtA)" transform="translate(44 244)">
                <path fill="#F9F9F9" d="M0 0h85v32H0V0z"/>
            </g>
            <g clip-path="url(#krpdou5g2i)" transform="translate(52.468 252.81)">
                <path fill="#8D8D92" d="M0 0h2.27v13.19H0V0z"/>
            </g>
            <g clip-path="url(#1om4ljqb2l)" transform="translate(57.606 256.608)">
                <path fill="#8D8D92" d="M0 0h7.603v9.392H0V0z"/>
            </g>
            <g clip-path="url(#nfeetvw06t)" transform="translate(67.7 256.603)">
                <path fill="#8D8D92" d="M0 0h7.476v9.55H0V0z"/>
            </g>
            <g clip-path="url(#r8pkl0bu8q)" transform="translate(77.691 256.616)">
                <path fill="#8D8D92" d="M0 0h4.783v9.384H0V0z"/>
            </g>
            <g clip-path="url(#9d5277xgmo)" transform="translate(83.978 256.603)">
                <path fill="#8D8D92" d="M0 0h7.674v9.55H0V0z"/>
            </g>
            <g clip-path="url(#i73njevyvm)" transform="translate(93.616 256.608)">
                <path fill="#8D8D92" d="M0 0h7.266v9.54H0V0z"/>
            </g>
            <g clip-path="url(#60pcshp64h)" transform="translate(103.213 256.603)">
                <path fill="#8D8D92" d="M0 0h7.166v9.55H0V0z"/>
            </g>
            <g clip-path="url(#9d5277xgmo)" transform="translate(112.38 256.603)">
                <path fill="#8D8D92" d="M0 0h7.674v9.55H0V0z"/>
            </g>
            <g>
                <g clip-path="url(#m5zcnr9vtA)" transform="translate(138 244)">
                    <path fill="rgba(58, 180, 204, 0.15)" d="M0 0h85v32H0V0z"/>
                </g>
                <g clip-path="url(#i73njevyvm)" transform="translate(147.38 256.608)">
                    <path fill="#0079FF" d="M0 0h7.266v9.54H0V0z"/>
                </g>
                <g clip-path="url(#1om4ljqb2l)" transform="translate(157.583 256.608)">
                    <path fill="#0079FF" d="M0 0h7.603v9.392H0V0z"/>
                </g>
                <g clip-path="url(#oxdg4f76hj)" transform="translate(167.21 254.457)">
                    <path fill="#0079FF" d="M0 0h5.218v11.623H0V0z"/>
                </g>
                <g clip-path="url(#9d5277xgmo)" transform="translate(174.294 256.603)">
                    <path fill="#0079FF" d="M0 0h7.674v9.55H0V0z"/>
                </g>
                <g clip-path="url(#1om4ljqb2l)" transform="translate(184.455 256.608)">
                    <path fill="#0079FF" d="M0 0h7.603v9.392H0V0z"/>
                </g>
                <g clip-path="url(#1om4ljqb2l)" transform="translate(195 256.608)">
                    <path fill="#0079FF" d="M0 0h7.603v9.392H0V0z"/>
                </g>
                <g clip-path="url(#i73njevyvm)" transform="translate(205.02 256.608)">
                    <path fill="#0079FF" d="M0 0h7.266v9.54H0V0z"/>
                </g>
            </g>
            <g>
                <g clip-path="url(#rrgb652nxb)" transform="translate(232 244)">
                    <path fill="#F9F9F9" d="M0 0h54v32H0V0z"/>
                </g>
                <g clip-path="url(#o6e6rmhz4B)" transform="translate(243.102 252.81)">
                    <path fill="#8D8D92" d="M0 0h3.783v16.433H0V0z"/>
                </g>
                <g clip-path="url(#0txwf30m9d)" transform="translate(249.303 256.603)">
                    <path fill="#8D8D92" d="M0 0h7.99v9.55H0V0z"/>
                </g>
                <g clip-path="url(#krpdou5g2i)" transform="translate(259.711 252.81)">
                    <path fill="#8D8D92" d="M0 0h2.27v13.19H0V0z"/>
                </g>
                <g clip-path="url(#1om4ljqb2l)" transform="translate(264.85 256.608)">
                    <path fill="#8D8D92" d="M0 0h7.603v9.392H0V0z"/>
                </g>
            </g>
            <g>
                <g clip-path="url(#rrgb652nxb)" transform="translate(295 244)">
                    <path fill="#F9F9F9" d="M0 0h54v32H0V0z"/>
                </g>
                <g clip-path="url(#pdh3rmstlx)" transform="translate(304.051 253.37)">
                    <path fill="#8D8D92" d="M0 0h7.639v12.63H0V0z"/>
                </g>
                <g clip-path="url(#0txwf30m9d)" transform="translate(314.177 256.603)">
                    <path fill="#8D8D92" d="M0 0h7.99v9.55H0V0z"/>
                </g>
                <g clip-path="url(#rf49n2d5mp)" transform="translate(324.634 256.756)">
                    <path fill="#8D8D92" d="M0 0h7.578v9.392H0V0z"/>
                </g>
                <g clip-path="url(#r8pkl0bu8q)" transform="translate(335.34 256.616)">
                    <path fill="#8D8D92" d="M0 0h4.783v9.384H0V0z"/>
                </g>
            </g>
        </g>
        <g clip-path="url(#bvkp9wunsC)" transform="translate(0 167)">
            <path fill="url(#q422rhxiaD)" d="M0 0h390v191H0V0z"/>
        </g>
    </g>
</svg>
