<svg width="18" height="17" viewBox="0 0 18 17" fill="none" xmlns="http://www.w3.org/2000/svg">
<path d="M3.67383 16.9336H14.3174C16.2158 16.9336 17.2002 15.958 17.2002 14.0859V3.38086C17.2002 1.50879 16.2158 0.533203 14.3174 0.533203H3.67383C1.77539 0.533203 0.791016 1.5 0.791016 3.38086V14.0859C0.791016 15.958 1.77539 16.9336 3.67383 16.9336ZM3.7793 15.2109C2.96191 15.2109 2.51367 14.7891 2.51367 13.9365V3.53027C2.51367 2.67773 2.96191 2.24707 3.7793 2.24707H14.2119C15.0205 2.24707 15.4775 2.67773 15.4775 3.53027V13.9365C15.4775 14.7891 15.0205 15.2109 14.2119 15.2109H3.7793ZM6.49512 13.3125C6.73242 13.3125 6.88184 13.1895 7.25098 12.8291L8.96484 11.1328C8.98242 11.1152 9.01758 11.1152 9.03516 11.1328L10.749 12.8291C11.127 13.1895 11.2676 13.3125 11.5049 13.3125C11.8301 13.3125 12.0498 13.084 12.0498 12.6973V5.48145C12.0498 4.62012 11.5928 4.16309 10.7402 4.16309H7.25977C6.40723 4.16309 5.9502 4.62012 5.9502 5.48145V12.6973C5.9502 13.084 6.16992 13.3125 6.49512 13.3125Z" fill="rgb(232, 231, 232)"/>
</svg>
